<?xml version="1.0" encoding="utf-8"?>
<!-- Generator: Adobe Illustrator 22.0.1, SVG Export Plug-In . SVG Version: 6.00 Build 0)  -->
<svg version="1.1" xmlns="http://www.w3.org/2000/svg" xmlns:xlink="http://www.w3.org/1999/xlink" x="0px" y="0px"
	 viewBox="0 0 1024 1024" style="enable-background:new 0 0 1024 1024;" xml:space="preserve">
<style type="text/css">
	.st0{fill:#191919;}
	.st1{display:none;}
	.st2{display:inline;fill:#CCCCCC;fill-opacity:0.25;}
	.st3{fill:#8BAAAF;}
	.st4{fill:#59797C;}
	.st5{fill:url(#SVGID_1_);}
	.st6{fill:#0F0F0F;}
	.st7{fill:#203030;}
	.st8{fill:#D6AA7B;}
	.st9{fill:none;stroke:#203030;stroke-miterlimit:10;}
	.st10{fill:#543B27;}
	.st11{fill:#161616;}
	.st12{fill:#FFFFFF;}
	.st13{opacity:0.56;fill:#FFFFFF;}
	.st14{display:inline;}
	.st15{fill:#3D3D3D;}
	.st16{fill:#CECECE;}
</style>
<g id="Layer_4">
	<rect class="st0" width="1024" height="1024"/>
</g>
<g id="Layer_1" class="st1">
	<desc>&apos;film reel.blend&apos;, Cylinder, (Blender 2.79 (sub 0))</desc>
	<polygon class="st2" points="102.4,717.9 102.4,424 77.8,424 77.8,717.9 	"/>
	<polygon class="st2" points="551.6,345.5 563.5,367.3 576.1,362 562.9,337.8 	"/>
	<polygon class="st2" points="535.6,326.4 551.6,345.5 562.9,337.8 545.2,316.7 	"/>
	<polygon class="st2" points="516.3,310.8 535.6,326.4 545.2,316.7 523.8,299.4 	"/>
	<polygon class="st2" points="494.3,299.2 516.3,310.8 523.8,299.4 499.4,286.5 	"/>
	<polygon class="st2" points="470.4,292.1 494.3,299.2 499.4,286.5 473,278.7 	"/>
	<polygon class="st2" points="445.6,289.7 470.4,292.1 473,278.7 445.6,276 	"/>
	<polygon class="st2" points="420.8,292.2 445.6,289.7 445.6,276 418.2,278.8 	"/>
	<polygon class="st2" points="397,299.4 420.8,292.2 418.2,278.8 391.8,286.7 	"/>
	<polygon class="st2" points="375,311 397,299.4 391.8,286.7 367.5,299.6 	"/>
	<polygon class="st2" points="355.7,326.6 375,311 367.5,299.6 346.1,316.9 	"/>
	<polygon class="st2" points="339.7,345.7 355.7,326.6 346.1,316.9 328.5,338 	"/>
	<polygon class="st2" points="327.8,367.4 339.7,345.7 328.5,338 315.2,362 	"/>
	<polygon class="st2" points="320.2,391.1 327.8,367.4 315.2,362 306.9,388.2 	"/>
	<polygon class="st2" points="317.4,415.7 320.2,391.1 306.9,388.2 303.7,415.5 	"/>
	<polygon class="st2" points="22.8,299.2 19.8,274.5 6.1,274.8 9.5,302.1 	"/>
	<polygon class="st2" points="30.5,322.8 22.8,299.2 9.5,302.1 18,328.3 	"/>
	<polygon class="st2" points="42.6,344.5 30.5,322.8 18,328.3 31.4,352.3 	"/>
	<polygon class="st2" points="58.7,363.5 42.6,344.5 31.4,352.3 49.2,373.3 	"/>
	<polygon class="st2" points="78.1,379.1 58.7,363.5 49.2,373.3 70.6,390.5 	"/>
	<polygon class="st2" points="100.2,390.6 78.1,379.1 70.6,390.5 95,403.3 	"/>
	<polygon class="st2" points="124,397.7 100.2,390.6 95,403.3 121.4,411.1 	"/>
	<polygon class="st2" points="148.8,400.1 124,397.7 121.4,411.1 148.8,413.8 	"/>
	<polygon class="st2" points="173.6,397.7 148.8,400.1 148.8,413.8 176.2,411.1 	"/>
	<polygon class="st2" points="197.4,390.6 173.6,397.7 176.2,411.1 202.6,403.3 	"/>
	<polygon class="st2" points="219.5,379.1 197.4,390.6 202.6,403.3 226.9,390.5 	"/>
	<polygon class="st2" points="238.9,363.5 219.5,379.1 226.9,390.5 248.4,373.3 	"/>
	<polygon class="st2" points="254.9,344.5 238.9,363.5 248.4,373.3 266.2,352.3 	"/>
	<polygon class="st2" points="267.1,322.8 254.9,344.5 266.2,352.3 279.6,328.3 	"/>
	<polygon class="st2" points="274.8,299.1 267.1,322.8 279.6,328.3 288.1,302.1 	"/>
	<polygon class="st2" points="516,433.7 539.4,433.7 539.4,424 516,424 	"/>
	<polygon class="st2" points="632.8,433.7 656.1,433.7 656.1,424 632.8,424 	"/>
	<polygon class="st2" points="277.8,274.5 274.8,299.1 288.1,302.1 291.4,274.8 	"/>
	<polygon class="st2" points="586.1,433.7 609.4,433.7 609.4,424 586.1,424 	"/>
	<polygon class="st2" points="540.9,30 568.7,30 568.7,4.1 540.9,4.1 	"/>
	<polygon class="st2" points="225.2,1019.9 225.2,726.1 200.6,726.1 200.6,1019.9 	"/>
	<polygon class="st2" points="539.4,433.7 562.7,433.7 562.7,424 539.4,424 	"/>
	<polygon class="st2" points="927.2,20.3 903.8,20.3 903.8,30 927.2,30 	"/>
	<polygon class="st2" points="562.7,433.7 586.1,433.7 586.1,424 562.7,424 	"/>
	<polygon class="st2" points="903.8,20.3 880.5,20.3 880.5,30 903.8,30 	"/>
	<polygon class="st2" points="28.7,1019.9 28.7,726.1 4.1,726.1 4.1,1019.9 	"/>
	<polygon class="st2" points="835.1,877.9 832.5,901.4 851.9,905.5 855,878.1 	"/>
	<polygon class="st2" points="880.5,20.3 857.1,20.3 857.1,30 880.5,30 	"/>
	<polygon class="st2" points="249.7,1019.9 249.7,726.1 225.2,726.1 225.2,1019.9 	"/>
	<polygon class="st2" points="609.4,433.7 632.8,433.7 632.8,424 609.4,424 	"/>
	<polygon class="st2" points="857.1,20.3 833.8,20.3 833.8,30 857.1,30 	"/>
	<polygon class="st2" points="563.5,367.3 571,391 584.4,388.2 576.1,362 	"/>
	<polygon class="st2" points="833.8,20.3 810.4,20.3 810.4,30 833.8,30 	"/>
	<polygon class="st2" points="53.2,1019.9 53.2,726.1 28.7,726.1 28.7,1019.9 	"/>
	<polygon class="st2" points="810.4,20.3 787.1,20.3 787.1,30 810.4,30 	"/>
	<polygon class="st2" points="274.3,1019.9 274.3,726.1 249.7,726.1 249.7,1019.9 	"/>
	<polygon class="st2" points="787.1,20.3 763.7,20.3 763.7,30 787.1,30 	"/>
	<polygon class="st2" points="126.9,717.9 126.9,424 102.4,424 102.4,717.9 	"/>
	<polygon class="st2" points="763.7,20.3 740.4,20.3 740.4,30 763.7,30 	"/>
	<polygon class="st2" points="77.8,1019.9 77.8,726.1 53.2,726.1 53.2,1019.9 	"/>
	<polygon class="st2" points="740.4,20.3 717,20.3 717,30 740.4,30 	"/>
	<polygon class="st2" points="298.9,1019.9 298.9,726.1 274.3,726.1 274.3,1019.9 	"/>
	<polygon class="st2" points="717,20.3 693.7,20.3 693.7,30 717,30 	"/>
	<polygon class="st2" points="151.5,717.9 151.5,424 126.9,424 126.9,717.9 	"/>
	<polygon class="st2" points="693.7,20.3 670.3,20.3 670.3,30 693.7,30 	"/>
	<polygon class="st2" points="102.4,1019.9 102.4,726.1 77.8,726.1 77.8,1019.9 	"/>
	<polygon class="st2" points="346.2,30 374,30 374,4.1 346.2,4.1 	"/>
	<polygon class="st2" points="151.5,38.2 123.7,38.2 123.7,64.1 151.5,64.1 	"/>
	<polygon class="st2" points="401.8,38.2 374,38.2 374,64.1 401.8,64.1 	"/>
	<polygon class="st2" points="457.4,30 485.3,30 485.3,4.1 457.4,4.1 	"/>
	<polygon class="st2" points="207.1,30 234.9,30 234.9,4.1 207.1,4.1 	"/>
	<polygon class="st2" points="290.6,38.2 262.7,38.2 262.7,64.1 290.6,64.1 	"/>
	<polygon class="st2" points="540.9,38.2 513.1,38.2 513.1,64.1 540.9,64.1 	"/>
	<polygon class="st2" points="318.4,30 346.2,30 346.2,4.1 318.4,4.1 	"/>
	<polygon class="st2" points="179.3,38.2 151.5,38.2 151.5,64.1 179.3,64.1 	"/>
	<polygon class="st2" points="429.6,38.2 401.8,38.2 401.8,64.1 429.6,64.1 	"/>
	<polygon class="st2" points="429.6,30 457.4,30 457.4,4.1 429.6,4.1 	"/>
	<polygon class="st2" points="179.3,30 207.1,30 207.1,4.1 179.3,4.1 	"/>
	<polygon class="st2" points="318.4,38.2 290.6,38.2 290.6,64.1 318.4,64.1 	"/>
	<polygon class="st2" points="203.8,146.7 202,161.8 241.1,170.1 243.7,147.2 	"/>
	<polygon class="st2" points="290.6,30 318.4,30 318.4,4.1 290.6,4.1 	"/>
	<polygon class="st2" points="207.1,38.2 179.3,38.2 179.3,64.1 207.1,64.1 	"/>
	<polygon class="st2" points="457.4,38.2 429.6,38.2 429.6,64.1 457.4,64.1 	"/>
	<polygon class="st2" points="401.8,30 429.6,30 429.6,4.1 401.8,4.1 	"/>
	<polygon class="st2" points="151.5,30 179.3,30 179.3,4.1 151.5,4.1 	"/>
	<polygon class="st2" points="346.2,38.2 318.4,38.2 318.4,64.1 346.2,64.1 	"/>
	<polygon class="st2" points="513.1,30 540.9,30 540.9,4.1 513.1,4.1 	"/>
	<polygon class="st2" points="485.3,30 513.1,30 513.1,4.1 485.3,4.1 	"/>
	<polygon class="st2" points="262.7,30 290.6,30 290.6,4.1 262.7,4.1 	"/>
	<polygon class="st2" points="234.9,38.2 207.1,38.2 207.1,64.1 234.9,64.1 	"/>
	<polygon class="st2" points="485.3,38.2 457.4,38.2 457.4,64.1 485.3,64.1 	"/>
	<polygon class="st2" points="374,30 401.8,30 401.8,4.1 374,4.1 	"/>
	<polygon class="st2" points="123.7,30 151.5,30 151.5,4.1 123.7,4.1 	"/>
	<polygon class="st2" points="374,38.2 346.2,38.2 346.2,64.1 374,64.1 	"/>
	<polygon class="st2" points="568.7,38.2 540.9,38.2 540.9,64.1 568.7,64.1 	"/>
	<polygon class="st2" points="234.9,30 262.7,30 262.7,4.1 234.9,4.1 	"/>
	<polygon class="st2" points="262.7,38.2 234.9,38.2 234.9,64.1 262.7,64.1 	"/>
	<polygon class="st2" points="513.1,38.2 485.3,38.2 485.3,64.1 513.1,64.1 	"/>
	<polygon class="st2" points="274.3,717.9 274.3,424 249.7,424 249.7,717.9 	"/>
	<polygon class="st2" points="950.5,20.3 927.2,20.3 927.2,30 950.5,30 	"/>
	<polygon class="st2" points="492.7,433.7 516,433.7 516,424 492.7,424 	"/>
	<polygon class="st2" points="469.3,433.7 492.7,433.7 492.7,424 469.3,424 	"/>
	<polygon class="st2" points="200.6,1019.9 200.6,726.1 176,726.1 176,1019.9 	"/>
	<polygon class="st2" points="446,433.7 469.3,433.7 469.3,424 446,424 	"/>
	<polygon class="st2" points="249.7,717.9 249.7,424 225.2,424 225.2,717.9 	"/>
	<polygon class="st2" points="422.6,433.7 446,433.7 446,424 422.6,424 	"/>
	<polygon class="st2" points="397.1,1019.9 397.1,726.1 372.6,726.1 372.6,1019.9 	"/>
	<polygon class="st2" points="399.3,433.7 422.6,433.7 422.6,424 399.3,424 	"/>
	<polygon class="st2" points="176,1019.9 176,726.1 151.5,726.1 151.5,1019.9 	"/>
	<polygon class="st2" points="77.8,717.9 77.8,424 53.2,424 53.2,717.9 	"/>
	<polygon class="st2" points="375.9,433.7 399.3,433.7 399.3,424 375.9,424 	"/>
	<polygon class="st2" points="225.2,717.9 225.2,424 200.6,424 200.6,717.9 	"/>
	<polygon class="st2" points="352.5,433.7 375.9,433.7 375.9,424 352.5,424 	"/>
	<polygon class="st2" points="372.6,1019.9 372.6,726.1 348,726.1 348,1019.9 	"/>
	<polygon class="st2" points="329.2,433.7 352.5,433.7 352.5,424 329.2,424 	"/>
	<polygon class="st2" points="151.5,1019.9 151.5,726.1 126.9,726.1 126.9,1019.9 	"/>
	<polygon class="st2" points="305.8,433.7 329.2,433.7 329.2,424 305.8,424 	"/>
	<polygon class="st2" points="200.6,717.9 200.6,424 176,424 176,717.9 	"/>
	<polygon class="st2" points="53.2,717.9 53.2,424 28.7,424 28.7,717.9 	"/>
	<polygon class="st2" points="282.5,433.7 305.8,433.7 305.8,424 282.5,424 	"/>
	<polygon class="st2" points="348,1019.9 348,726.1 323.4,726.1 323.4,1019.9 	"/>
	<polygon class="st2" points="600.2,20.3 576.9,20.3 576.9,30 600.2,30 	"/>
	<polygon class="st2" points="126.9,1019.9 126.9,726.1 102.4,726.1 102.4,1019.9 	"/>
	<polygon class="st2" points="623.6,20.3 600.2,20.3 600.2,30 623.6,30 	"/>
	<polygon class="st2" points="176,717.9 176,424 151.5,424 151.5,717.9 	"/>
	<polygon class="st2" points="28.7,717.9 28.7,424 4.1,424 4.1,717.9 	"/>
	<polygon class="st2" points="646.9,20.3 623.6,20.3 623.6,30 646.9,30 	"/>
	<polygon class="st2" points="323.4,1019.9 323.4,726.1 298.9,726.1 298.9,1019.9 	"/>
	<polygon class="st2" points="670.3,20.3 646.9,20.3 646.9,30 670.3,30 	"/>
	<polygon class="st2" points="910.5,123.8 899.7,124.8 899.7,139 913.2,137.7 	"/>
	<polygon class="st2" points="601.5,823.5 612.8,802.7 596.4,791.6 583.2,815.7 	"/>
	<polygon class="st2" points="780.6,977.8 759.7,988.9 767.2,1007.3 791.5,994.4 	"/>
	<polygon class="st2" points="612.8,802.7 628,784.5 614,770.4 596.4,791.6 	"/>
	<polygon class="st2" points="759.7,988.9 737,995.7 740.9,1015.2 767.2,1007.3 	"/>
	<polygon class="st2" points="628,784.5 646.3,769.6 635.4,753.1 614,770.4 	"/>
	<polygon class="st2" points="737,995.7 713.5,998 713.5,1017.9 740.9,1015.2 	"/>
	<polygon class="st2" points="646.3,769.6 667.2,758.6 659.7,740.2 635.4,753.1 	"/>
	<polygon class="st2" points="713.5,998 689.9,995.7 686.1,1015.2 713.5,1017.9 	"/>
	<polygon class="st2" points="667.2,758.6 689.9,751.8 686.1,732.3 659.7,740.2 	"/>
	<polygon class="st2" points="689.9,995.7 667.2,988.9 659.7,1007.3 686.1,1015.2 	"/>
	<polygon class="st2" points="689.9,751.8 713.5,749.5 713.5,729.6 686.1,732.3 	"/>
	<polygon class="st2" points="667.2,988.9 646.3,977.8 635.4,994.4 659.7,1007.3 	"/>
	<polygon class="st2" points="713.5,749.5 737,751.8 740.9,732.3 713.5,729.6 	"/>
	<polygon class="st2" points="646.3,977.8 628,962.9 614,977 635.4,994.4 	"/>
	<polygon class="st2" points="737,751.8 759.7,758.6 767.2,740.2 740.9,732.3 	"/>
	<polygon class="st2" points="628,962.9 612.8,944.7 596.4,955.9 614,977 	"/>
	<polygon class="st2" points="759.7,758.6 780.6,769.6 791.5,753.1 767.2,740.2 	"/>
	<polygon class="st2" points="612.8,944.7 601.5,924 583.2,931.7 596.4,955.9 	"/>
	<polygon class="st2" points="832.5,901.4 825.4,924 843.7,931.7 851.9,905.5 	"/>
	<polygon class="st2" points="780.6,769.6 799,784.5 812.9,770.4 791.5,753.1 	"/>
	<polygon class="st2" points="601.5,924 594.4,901.4 575,905.5 583.2,931.7 	"/>
	<polygon class="st2" points="832.5,846.1 835.1,869.6 855,869.3 851.9,842 	"/>
	<polygon class="st2" points="799,784.5 814.1,802.7 830.5,791.6 812.9,770.4 	"/>
	<polygon class="st2" points="594.4,901.4 591.8,877.9 572,878.1 575,905.5 	"/>
	<polygon class="st2" points="825.4,924 814.1,944.7 830.5,955.9 843.7,931.7 	"/>
	<polygon class="st2" points="814.1,802.7 825.4,823.5 843.7,815.7 830.5,791.6 	"/>
	<polygon class="st2" points="591.8,869.6 594.4,846.1 575,842 572,869.3 	"/>
	<polygon class="st2" points="814.1,944.7 799,962.9 812.9,977 830.5,955.9 	"/>
	<polygon class="st2" points="825.4,823.5 832.5,846.1 851.9,842 843.7,815.7 	"/>
	<polygon class="st2" points="594.4,846.1 601.5,823.5 583.2,815.7 575,842 	"/>
	<polygon class="st2" points="799,962.9 780.6,977.8 791.5,994.4 812.9,977 	"/>
	<polygon class="st2" points="202,161.8 197.4,176.4 234.1,192.1 241.1,170.1 	"/>
	<polygon class="st2" points="499.6,250.3 501.3,265.5 541.3,264.9 538.7,242 	"/>
	<polygon class="st2" points="190,189.8 180.2,201.5 208.2,230 223,212.3 	"/>
	<polygon class="st2" points="180.2,201.5 168.3,211.1 190.3,244.5 208.2,230 	"/>
	<polygon class="st2" points="168.3,211.1 154.8,218.3 169.9,255.3 190.3,244.5 	"/>
	<polygon class="st2" points="154.8,218.3 140.1,222.7 147.8,261.9 169.9,255.3 	"/>
	<polygon class="st2" points="140.1,222.7 124.9,224.1 124.9,264.1 147.8,261.9 	"/>
	<polygon class="st2" points="124.9,224.1 109.7,222.7 102,261.9 124.9,264.1 	"/>
	<polygon class="st2" points="109.7,222.7 95,218.3 79.9,255.3 102,261.9 	"/>
	<polygon class="st2" points="95,218.3 81.5,211.1 59.5,244.5 79.9,255.3 	"/>
	<polygon class="st2" points="81.5,211.1 69.6,201.5 41.6,230 59.5,244.5 	"/>
	<polygon class="st2" points="69.6,201.5 59.8,189.8 26.8,212.3 41.6,230 	"/>
	<polygon class="st2" points="59.8,189.8 52.5,176.4 15.7,192.1 26.8,212.3 	"/>
	<polygon class="st2" points="52.5,176.4 47.8,161.8 8.7,170.1 15.7,192.1 	"/>
	<polygon class="st2" points="47.8,161.8 46.1,146.7 6.1,147.2 8.7,170.1 	"/>
	<polygon class="st2" points="343.6,265.5 345.4,250.3 306.3,242 303.7,264.9 	"/>
	<polygon class="st2" points="345.4,250.3 350.1,235.8 313.3,220 306.3,242 	"/>
	<polygon class="st2" points="350.1,235.8 357.4,222.4 324.4,199.8 313.3,220 	"/>
	<polygon class="st2" points="357.4,222.4 367.2,210.6 339.2,182.1 324.4,199.8 	"/>
	<polygon class="st2" points="367.2,210.6 379.1,201 357.1,167.6 339.2,182.1 	"/>
	<polygon class="st2" points="379.1,201 392.6,193.9 377.5,156.9 357.1,167.6 	"/>
	<polygon class="st2" points="392.6,193.9 407.3,189.5 399.6,150.2 377.5,156.9 	"/>
	<polygon class="st2" points="407.3,189.5 422.5,188 422.5,148 399.6,150.2 	"/>
	<polygon class="st2" points="422.5,188 437.7,189.5 445.4,150.2 422.5,148 	"/>
	<polygon class="st2" points="437.7,189.5 452.4,193.9 467.5,156.9 445.4,150.2 	"/>
	<polygon class="st2" points="452.4,193.9 465.9,201 487.9,167.6 467.5,156.9 	"/>
	<polygon class="st2" points="465.9,201 477.8,210.6 505.8,182.1 487.9,167.6 	"/>
	<polygon class="st2" points="477.8,210.6 487.6,222.4 520.6,199.8 505.8,182.1 	"/>
	<polygon class="st2" points="487.6,222.4 494.9,235.8 531.7,220.1 520.6,199.8 	"/>
	<polygon class="st2" points="494.9,235.8 499.6,250.3 538.7,242 531.7,220.1 	"/>
	<polygon class="st2" points="893.7,425.4 883.2,425.4 883.2,453 893.7,453 	"/>
	<polygon class="st2" points="197.4,176.4 190,189.8 223,212.3 234.1,192.1 	"/>
	<polygon class="st2" points="195.2,146.3 193.6,160 202,161.8 203.8,146.7 	"/>
	<polygon class="st2" points="193.6,160 189.5,173 197.4,176.4 202,161.8 	"/>
	<polygon class="st2" points="189.5,173 182.9,184.9 190,189.8 197.4,176.4 	"/>
	<polygon class="st2" points="182.9,184.9 174.2,195.4 180.2,201.5 190,189.8 	"/>
	<polygon class="st2" points="174.2,195.4 163.6,204 168.3,211.1 180.2,201.5 	"/>
	<polygon class="st2" points="163.6,204 151.5,210.3 154.8,218.3 168.3,211.1 	"/>
	<polygon class="st2" points="151.5,210.3 138.5,214.2 140.1,222.7 154.8,218.3 	"/>
	<polygon class="st2" points="138.5,214.2 124.9,215.6 124.9,224.1 140.1,222.7 	"/>
	<polygon class="st2" points="124.9,215.6 111.3,214.2 109.7,222.7 124.9,224.1 	"/>
	<polygon class="st2" points="111.3,214.2 98.3,210.3 95,218.3 109.7,222.7 	"/>
	<polygon class="st2" points="98.3,210.3 86.2,204 81.5,211.1 95,218.3 	"/>
	<polygon class="st2" points="86.2,204 75.6,195.4 69.6,201.5 81.5,211.1 	"/>
	<polygon class="st2" points="75.6,195.4 66.9,184.9 59.8,189.8 69.6,201.5 	"/>
	<polygon class="st2" points="66.9,184.9 60.4,173 52.5,176.4 59.8,189.8 	"/>
	<polygon class="st2" points="60.4,173 56.2,160 47.8,161.8 52.5,176.4 	"/>
	<polygon class="st2" points="56.2,160 54.6,146.3 46.1,146.7 47.8,161.8 	"/>
	<polygon class="st2" points="352.2,265.8 353.8,252.2 345.4,250.3 343.6,265.5 	"/>
	<polygon class="st2" points="353.8,252.2 357.9,239.2 350.1,235.8 345.4,250.3 	"/>
	<polygon class="st2" points="357.9,239.2 364.5,227.2 357.4,222.4 350.1,235.8 	"/>
	<polygon class="st2" points="364.5,227.2 373.2,216.7 367.2,210.6 357.4,222.4 	"/>
	<polygon class="st2" points="373.2,216.7 383.8,208.2 379.1,201 367.2,210.6 	"/>
	<polygon class="st2" points="383.8,208.2 395.9,201.8 392.6,193.9 379.1,201 	"/>
	<polygon class="st2" points="395.9,201.8 408.9,197.9 407.3,189.5 392.6,193.9 	"/>
	<polygon class="st2" points="408.9,197.9 422.5,196.6 422.5,188 407.3,189.5 	"/>
	<polygon class="st2" points="422.5,196.6 436.1,197.9 437.7,189.5 422.5,188 	"/>
	<polygon class="st2" points="436.1,197.9 449.1,201.8 452.4,193.9 437.7,189.5 	"/>
	<polygon class="st2" points="449.1,201.8 461.2,208.2 465.9,201 452.4,193.9 	"/>
	<polygon class="st2" points="461.2,208.2 471.8,216.8 477.8,210.6 465.9,201 	"/>
	<polygon class="st2" points="471.8,216.8 480.5,227.2 487.6,222.4 477.8,210.6 	"/>
	<polygon class="st2" points="480.5,227.2 487,239.2 494.9,235.8 487.6,222.4 	"/>
	<polygon class="st2" points="487,239.2 491.2,252.2 499.6,250.3 494.9,235.8 	"/>
	<polygon class="st2" points="491.2,252.2 492.8,265.8 501.3,265.5 499.6,250.3 	"/>
	<polygon class="st2" points="883.2,425.4 872.7,425.4 872.7,453 883.2,453 	"/>
	<polygon class="st2" points="767.2,486.6 776.8,481.5 771.4,468.4 759.4,474.7 	"/>
	<polygon class="st2" points="899.7,124.8 889,123.8 886.3,137.7 899.7,139 	"/>
	<polygon class="st2" points="776.8,481.5 787.1,478.4 784.4,464.5 771.4,468.4 	"/>
	<polygon class="st2" points="889,123.8 878.6,120.7 873.3,133.8 886.3,137.7 	"/>
	<polygon class="st2" points="787.1,478.4 797.9,477.4 797.9,463.2 784.4,464.5 	"/>
	<polygon class="st2" points="878.6,120.7 869,115.7 861.3,127.6 873.3,133.8 	"/>
	<polygon class="st2" points="797.9,477.4 808.7,478.4 811.4,464.5 797.9,463.2 	"/>
	<polygon class="st2" points="869,115.7 860.6,108.9 850.7,119.1 861.3,127.6 	"/>
	<polygon class="st2" points="808.7,478.4 819,481.5 824.4,468.4 811.4,464.5 	"/>
	<polygon class="st2" points="860.6,108.9 853.7,100.7 842,108.7 850.7,119.1 	"/>
	<polygon class="st2" points="819,481.5 828.6,486.6 836.4,474.7 824.4,468.4 	"/>
	<polygon class="st2" points="853.7,100.7 848.4,91.2 835.4,96.9 842,108.7 	"/>
	<polygon class="st2" points="828.6,486.6 837,493.3 846.9,483.2 836.4,474.7 	"/>
	<polygon class="st2" points="848.4,91.2 845.1,80.9 831.2,84 835.4,96.9 	"/>
	<polygon class="st2" points="954.4,80.9 951.1,91.2 964.1,96.9 968.3,84 	"/>
	<polygon class="st2" points="837,493.3 844,501.6 855.7,493.5 846.9,483.2 	"/>
	<polygon class="st2" points="845.1,80.9 843.8,70.2 829.6,70.5 831.2,84 	"/>
	<polygon class="st2" points="933.4,717.9 947.3,717.9 947.3,656.3 933.4,656.3 	"/>
	<polygon class="st2" points="844,501.6 849.2,511 862.2,505.4 855.7,493.5 	"/>
	<polygon class="st2" points="741.9,532 743.2,521.3 729.4,518.3 727.7,531.7 	"/>
	<polygon class="st2" points="945.8,100.7 938.9,108.9 948.8,119.1 957.5,108.7 	"/>
	<polygon class="st2" points="849.2,511 852.6,521.3 866.4,518.3 862.2,505.4 	"/>
	<polygon class="st2" points="743.2,521.3 746.5,511 733.6,505.4 729.4,518.3 	"/>
	<polygon class="st2" points="938.9,108.9 930.4,115.7 938.2,127.6 948.8,119.1 	"/>
	<polygon class="st2" points="873.3,391.2 878.5,415.6 884,414.9 878.6,389.6 	"/>
	<polygon class="st2" points="746.5,511 751.8,501.6 740.1,493.5 733.6,505.4 	"/>
	<polygon class="st2" points="930.4,115.7 920.9,120.7 926.2,133.8 938.2,127.6 	"/>
	<polygon class="st2" points="951.1,91.2 945.8,100.7 957.5,108.7 964.1,96.9 	"/>
	<polygon class="st2" points="751.8,501.6 758.8,493.3 748.9,483.2 740.1,493.5 	"/>
	<polygon class="st2" points="920.9,120.7 910.5,123.8 913.2,137.7 926.2,133.8 	"/>
	<polygon class="st2" points="758.8,493.3 767.2,486.6 759.4,474.7 748.9,483.2 	"/>
	<polygon class="st2" points="919.6,717.9 933.4,717.9 933.4,656.3 919.6,656.3 	"/>
	<polygon class="st2" points="852.6,521.3 853.9,532 868,531.7 866.4,518.3 	"/>
	<polygon class="st2" points="905.7,717.9 919.6,717.9 919.6,656.3 905.7,656.3 	"/>
	<polygon class="st2" points="891.9,717.9 905.7,717.9 905.7,656.3 891.9,656.3 	"/>
	<polygon class="st2" points="878,717.9 891.9,717.9 891.9,656.3 878,656.3 	"/>
	<polygon class="st2" points="864.2,717.9 878,717.9 878,656.3 864.2,656.3 	"/>
	<polygon class="st2" points="850.3,717.9 864.2,717.9 864.2,656.3 850.3,656.3 	"/>
	<polygon class="st2" points="836.5,717.9 850.3,717.9 850.3,656.3 836.5,656.3 	"/>
	<polygon class="st2" points="822.6,717.9 836.5,717.9 836.5,656.3 822.6,656.3 	"/>
	<polygon class="st2" points="808.8,717.9 822.6,717.9 822.6,656.3 808.8,656.3 	"/>
	<polygon class="st2" points="794.9,717.9 808.8,717.9 808.8,656.3 794.9,656.3 	"/>
	<polygon class="st2" points="781.1,717.9 794.9,717.9 794.9,656.3 781.1,656.3 	"/>
	<polygon class="st2" points="767.2,717.9 781.1,717.9 781.1,656.3 767.2,656.3 	"/>
	<polygon class="st2" points="753.4,717.9 767.2,717.9 767.2,656.3 753.4,656.3 	"/>
	<polygon class="st2" points="739.5,717.9 753.4,717.9 753.4,656.3 739.5,656.3 	"/>
	<polygon class="st2" points="725.7,717.9 739.5,717.9 739.5,656.3 725.7,656.3 	"/>
	<polygon class="st2" points="611.6,79.5 597.7,79.5 597.7,141.1 611.6,141.1 	"/>
	<polygon class="st2" points="625.4,79.5 611.6,79.5 611.6,141.1 625.4,141.1 	"/>
	<polygon class="st2" points="639.3,79.5 625.4,79.5 625.4,141.1 639.3,141.1 	"/>
	<polygon class="st2" points="653.1,79.5 639.3,79.5 639.3,141.1 653.1,141.1 	"/>
	<polygon class="st2" points="667,79.5 653.1,79.5 653.1,141.1 667,141.1 	"/>
	<polygon class="st2" points="680.8,79.5 667,79.5 667,141.1 680.8,141.1 	"/>
	<polygon class="st2" points="694.7,79.5 680.8,79.5 680.8,141.1 694.7,141.1 	"/>
	<polygon class="st2" points="708.6,79.5 694.7,79.5 694.7,141.1 708.6,141.1 	"/>
	<polygon class="st2" points="722.4,79.5 708.6,79.5 708.6,141.1 722.4,141.1 	"/>
	<polygon class="st2" points="736.3,79.5 722.4,79.5 722.4,141.1 736.3,141.1 	"/>
	<polygon class="st2" points="750.1,79.5 736.3,79.5 736.3,141.1 750.1,141.1 	"/>
	<polygon class="st2" points="764,79.5 750.1,79.5 750.1,141.1 764,141.1 	"/>
	<polygon class="st2" points="777.8,79.5 764,79.5 764,141.1 777.8,141.1 	"/>
	<polygon class="st2" points="791.7,79.5 777.8,79.5 777.8,141.1 791.7,141.1 	"/>
	<polygon class="st2" points="805.5,79.5 791.7,79.5 791.7,141.1 805.5,141.1 	"/>
	<polygon class="st2" points="819.4,79.5 805.5,79.5 805.5,141.1 819.4,141.1 	"/>
	<polygon class="st2" points="819.9,627.3 825.5,618.8 829.4,609.3 831.4,599.3 831.4,589.1 829.4,579.1 825.5,569.7 819.9,561.2 
		812.6,553.9 804.1,548.3 794.7,544.4 784.7,542.4 774.5,542.4 764.5,544.4 755,548.3 746.5,553.9 739.3,561.2 733.6,569.6 
		729.7,579.1 727.7,589.1 727.7,599.3 729.7,609.3 733.6,618.8 739.3,627.3 746.5,634.5 755,640.2 764.5,644.1 774.5,646.1 
		784.7,646.1 794.7,644.1 804.1,640.2 812.6,634.5 	"/>
	<polygon class="st2" points="755.3,71.3 765.8,71.3 765.8,43.8 755.3,43.8 	"/>
	<polygon class="st2" points="862.2,425.4 851.7,425.4 851.7,453 862.2,453 	"/>
	<polygon class="st2" points="851.7,425.4 841.2,425.4 841.2,453 851.7,453 	"/>
	<polygon class="st2" points="841.2,425.4 830.7,425.4 830.7,453 841.2,453 	"/>
	<polygon class="st2" points="830.7,425.4 820.2,425.4 820.2,453 830.7,453 	"/>
	<polygon class="st2" points="820.2,425.4 809.7,425.4 809.7,453 820.2,453 	"/>
	<polygon class="st2" points="809.7,425.4 799.2,425.4 799.2,453 809.7,453 	"/>
	<polygon class="st2" points="799.2,425.4 788.7,425.4 788.7,453 799.2,453 	"/>
	<polygon class="st2" points="788.7,425.4 778.2,425.4 778.2,453 788.7,453 	"/>
	<polygon class="st2" points="778.2,425.4 767.7,425.4 767.7,453 778.2,453 	"/>
	<polygon class="st2" points="767.7,425.4 757.2,425.4 757.2,453 767.7,453 	"/>
	<polygon class="st2" points="757.2,425.4 746.7,425.4 746.7,453 757.2,453 	"/>
	<polygon class="st2" points="746.7,425.4 736.2,425.4 736.2,453 746.7,453 	"/>
	<polygon class="st2" points="736.2,425.4 725.7,425.4 725.7,453 736.2,453 	"/>
	<polygon class="st2" points="597.7,71.3 608.2,71.3 608.2,43.8 597.7,43.8 	"/>
	<polygon class="st2" points="608.2,71.3 618.7,71.3 618.7,43.8 608.2,43.8 	"/>
	<polygon class="st2" points="618.7,71.3 629.2,71.3 629.2,43.8 618.7,43.8 	"/>
	<polygon class="st2" points="629.2,71.3 639.7,71.3 639.7,43.8 629.2,43.8 	"/>
	<polygon class="st2" points="639.7,71.3 650.3,71.3 650.3,43.8 639.7,43.8 	"/>
	<polygon class="st2" points="650.3,71.3 660.8,71.3 660.8,43.8 650.3,43.8 	"/>
	<polygon class="st2" points="660.8,71.3 671.3,71.3 671.3,43.8 660.8,43.8 	"/>
	<polygon class="st2" points="671.3,71.3 681.8,71.3 681.8,43.8 671.3,43.8 	"/>
	<polygon class="st2" points="681.8,71.3 692.3,71.3 692.3,43.8 681.8,43.8 	"/>
	<polygon class="st2" points="692.3,71.3 702.8,71.3 702.8,43.8 692.3,43.8 	"/>
	<polygon class="st2" points="702.8,71.3 713.3,71.3 713.3,43.8 702.8,43.8 	"/>
	<polygon class="st2" points="713.3,71.3 723.8,71.3 723.8,43.8 713.3,43.8 	"/>
	<polygon class="st2" points="723.8,71.3 734.3,71.3 734.3,43.8 723.8,43.8 	"/>
	<polygon class="st2" points="734.3,71.3 744.8,71.3 744.8,43.8 734.3,43.8 	"/>
	<polygon class="st2" points="744.8,71.3 755.3,71.3 755.3,43.8 744.8,43.8 	"/>
	<polygon class="st2" points="955.7,70.2 954.4,80.9 968.3,84 969.9,70.5 	"/>
	<polygon class="st2" points="872.7,425.4 862.2,425.4 862.2,453 872.7,453 	"/>
	<polygon class="st2" points="875.5,149.5 870.8,174 876.2,175.5 881,150 	"/>
	<polygon class="st2" points="123.7,109.1 123.7,137.8 149.9,137.8 149.9,109.1 	"/>
	<polygon class="st2" points="789.5,262.6 765.5,269.2 766.5,274.7 791.5,267.8 	"/>
	<polygon class="st2" points="359.7,100.9 359.7,72.3 333.5,72.3 333.5,100.9 	"/>
	<polygon class="st2" points="765.5,269.2 740.7,271.3 740.6,276.9 766.5,274.7 	"/>
	<polygon class="st2" points="333.5,109.1 333.5,137.8 359.7,137.8 359.7,109.1 	"/>
	<polygon class="st2" points="740.7,271.3 715.9,268.9 714.8,274.4 740.6,276.9 	"/>
	<polygon class="st2" points="149.9,100.9 149.9,72.3 123.7,72.3 123.7,100.9 	"/>
	<polygon class="st2" points="715.9,268.9 691.9,262 689.9,267.2 714.8,274.4 	"/>
	<polygon class="st2" points="385.9,100.9 385.9,72.3 359.7,72.3 359.7,100.9 	"/>
	<polygon class="st2" points="691.9,262 669.6,251 666.7,255.7 689.9,267.2 	"/>
	<polygon class="st2" points="307.3,109.1 307.3,137.8 333.5,137.8 333.5,109.1 	"/>
	<polygon class="st2" points="669.6,251 649.7,236.1 646,240.3 666.7,255.7 	"/>
	<polygon class="st2" points="176.1,100.9 176.1,72.3 149.9,72.3 149.9,100.9 	"/>
	<polygon class="st2" points="649.7,236.1 632.8,217.9 628.4,221.3 646,240.3 	"/>
	<polygon class="st2" points="412.2,100.9 412.2,72.3 385.9,72.3 385.9,100.9 	"/>
	<polygon class="st2" points="632.8,217.9 619.5,196.9 614.5,199.5 628.4,221.3 	"/>
	<polygon class="st2" points="517.1,100.9 517.1,72.3 490.9,72.3 490.9,100.9 	"/>
	<polygon class="st2" points="619.5,196.9 610.2,173.9 604.9,175.5 614.5,199.5 	"/>
	<polygon class="st2" points="281,109.1 281,137.8 307.3,137.8 307.3,109.1 	"/>
	<polygon class="st2" points="202.4,100.9 202.4,72.3 176.1,72.3 176.1,100.9 	"/>
	<polygon class="st2" points="610.2,173.9 605.3,149.6 599.8,150.1 604.9,175.5 	"/>
	<polygon class="st2" points="438.4,100.9 438.4,72.3 412.2,72.3 412.2,100.9 	"/>
	<polygon class="st2" points="605.3,415.6 610.5,391.2 605.1,389.6 599.8,414.9 	"/>
	<polygon class="st2" points="490.9,109.1 490.9,137.8 517.1,137.8 517.1,109.1 	"/>
	<polygon class="st2" points="610.5,391.2 619.9,368.3 615,365.7 605.1,389.6 	"/>
	<polygon class="st2" points="254.8,109.1 254.8,137.8 281,137.8 281,109.1 	"/>
	<polygon class="st2" points="228.6,100.9 228.6,72.3 202.4,72.3 202.4,100.9 	"/>
	<polygon class="st2" points="619.9,368.3 633.5,347.4 629.1,343.9 615,365.7 	"/>
	<polygon class="st2" points="464.6,100.9 464.6,72.3 438.4,72.3 438.4,100.9 	"/>
	<polygon class="st2" points="633.5,347.4 650.5,329.3 646.9,325.1 629.1,343.9 	"/>
	<polygon class="st2" points="464.6,109.1 464.6,137.8 490.9,137.8 490.9,109.1 	"/>
	<polygon class="st2" points="543.3,100.9 543.3,72.3 517.1,72.3 517.1,100.9 	"/>
	<polygon class="st2" points="108.2,138.1 108.3,79.7 4.1,79.5 	"/>
	<polygon class="st2" points="353.9,700.8 377.8,710.8 403.3,715.8 429.2,715.8 454.6,710.8 478.6,700.8 500.2,686.4 518.5,668.1 
		532.9,646.5 542.9,622.5 547.9,597.1 547.9,571.2 542.9,545.7 532.9,521.8 518.5,500.2 500.2,481.8 478.6,467.4 454.6,457.5 
		429.2,452.4 403.3,452.4 377.8,457.5 353.9,467.4 332.3,481.8 313.9,500.2 299.5,521.8 289.6,545.7 284.5,571.2 284.5,597.1 
		289.6,622.5 299.5,646.5 313.9,668.1 332.3,686.4 	"/>
	<polygon class="st2" points="385.9,109.1 385.9,137.8 412.2,137.8 412.2,109.1 	"/>
	<polygon class="st2" points="149.9,109.1 149.9,137.8 176.1,137.8 176.1,109.1 	"/>
	<polygon class="st2" points="333.5,100.9 333.5,72.3 307.3,72.3 307.3,100.9 	"/>
	<polygon class="st2" points="811.9,251.6 789.5,262.6 791.5,267.8 814.8,256.4 	"/>
	<polygon class="st2" points="359.7,109.1 359.7,137.8 385.9,137.8 385.9,109.1 	"/>
	<polygon class="st2" points="831.9,236.7 811.9,251.6 814.8,256.4 835.6,240.9 	"/>
	<polygon class="st2" points="863.8,368.3 873.3,391.2 878.6,389.6 868.8,365.7 	"/>
	<polygon class="st2" points="307.3,100.9 307.3,72.3 281,72.3 281,100.9 	"/>
	<polygon class="st2" points="848.7,218.4 831.9,236.7 835.6,240.9 853.1,221.7 	"/>
	<polygon class="st2" points="176.1,109.1 176.1,137.8 202.4,137.8 202.4,109.1 	"/>
	<polygon class="st2" points="850.3,347.4 863.8,368.3 868.8,365.7 854.7,343.9 	"/>
	<polygon class="st2" points="517.1,109.1 517.1,137.8 543.3,137.8 543.3,109.1 	"/>
	<polygon class="st2" points="861.8,197.2 848.7,218.4 853.1,221.7 866.8,199.7 	"/>
	<polygon class="st2" points="412.2,109.1 412.2,137.8 438.4,137.8 438.4,109.1 	"/>
	<polygon class="st2" points="833.2,329.3 850.3,347.4 854.7,343.9 836.9,325.1 	"/>
	<polygon class="st2" points="870.8,174 861.8,197.2 866.8,199.7 876.2,175.5 	"/>
	<polygon class="st2" points="813.1,314.5 833.2,329.3 836.9,325.1 816,309.8 	"/>
	<polygon class="st2" points="281,100.9 281,72.3 254.8,72.3 254.8,100.9 	"/>
	<polygon class="st2" points="202.4,109.1 202.4,137.8 228.6,137.8 228.6,109.1 	"/>
	<polygon class="st2" points="790.7,303.7 813.1,314.5 816,309.8 792.7,298.5 	"/>
	<polygon class="st2" points="438.4,109.1 438.4,137.8 464.6,137.8 464.6,109.1 	"/>
	<polygon class="st2" points="766.7,297 790.7,303.7 792.7,298.5 767.7,291.5 	"/>
	<polygon class="st2" points="490.9,100.9 490.9,72.3 464.6,72.3 464.6,100.9 	"/>
	<polygon class="st2" points="741.9,294.8 766.7,297 767.7,291.5 741.9,289.2 	"/>
	<polygon class="st2" points="254.8,100.9 254.8,72.3 228.6,72.3 228.6,100.9 	"/>
	<polygon class="st2" points="228.6,109.1 228.6,137.8 254.8,137.8 254.8,109.1 	"/>
	<polygon class="st2" points="717.1,297 741.9,294.8 741.9,289.2 716.1,291.5 	"/>
	<polygon class="st2" points="693,303.7 717.1,297 716.1,291.5 691.1,298.5 	"/>
	<polygon class="st2" points="670.6,314.5 693,303.7 691.1,298.5 667.8,309.8 	"/>
	<polygon class="st2" points="650.5,329.3 670.6,314.5 667.8,309.8 646.9,325.1 	"/>
	<polygon class="st2" points="843.6,646 902.1,646 843.7,541.8 	"/>
	<polygon class="st2" points="561.7,1019.9 561.7,726.1 503.3,726.1 503.3,1019.9 	"/>
	<polygon class="st2" points="501.2,1019.9 501.2,726.1 397.1,726.1 397.1,1019.9 	"/>
	<polygon class="st2" points="108.3,79.7 110.3,79.3 108.6,77.7 	"/>
	<polygon class="st2" points="843.6,646 841.7,646.3 843.3,647.9 	"/>
	<polygon class="st2" points="569,391.5 571.8,415.8 573.8,415.7 571,391 	"/>
	<polygon class="st2" points="561.6,368.1 569,391.5 571,391 563.5,367.3 	"/>
	<polygon class="st2" points="549.8,346.6 561.6,368.1 563.5,367.3 551.6,345.5 	"/>
	<polygon class="st2" points="445.6,291.8 470.1,294.1 470.4,292.1 445.6,289.7 	"/>
	<polygon class="st2" points="421.2,294.2 445.6,291.8 445.6,289.7 420.8,292.2 	"/>
	<polygon class="st2" points="397.8,301.3 421.2,294.2 420.8,292.2 397,299.4 	"/>
	<polygon class="st2" points="376.1,312.7 397.8,301.3 397,299.4 375,311 	"/>
	<polygon class="st2" points="357.1,328.1 376.1,312.7 375,311 355.7,326.6 	"/>
	<polygon class="st2" points="341.4,346.8 357.1,328.1 355.7,326.6 339.7,345.7 	"/>
	<polygon class="st2" points="329.6,368.2 341.4,346.8 339.7,345.7 327.8,367.4 	"/>
	<polygon class="st2" points="322.2,391.5 329.6,368.2 327.8,367.4 320.2,391.1 	"/>
	<polygon class="st2" points="319.4,415.8 322.2,391.5 320.2,391.1 317.4,415.7 	"/>
	<polygon class="st2" points="24.8,298.7 21.9,274.4 19.8,274.5 22.8,299.2 	"/>
	<polygon class="st2" points="32.4,322 24.8,298.7 22.8,299.2 30.5,322.8 	"/>
	<polygon class="st2" points="44.3,343.4 32.4,322 30.5,322.8 42.6,344.5 	"/>
	<polygon class="st2" points="60.1,362 44.3,343.4 42.6,344.5 58.7,363.5 	"/>
	<polygon class="st2" points="79.2,377.3 60.1,362 58.7,363.5 78.1,379.1 	"/>
	<polygon class="st2" points="100.9,388.7 79.2,377.3 78.1,379.1 100.2,390.6 	"/>
	<polygon class="st2" points="124.4,395.7 100.9,388.7 100.2,390.6 124,397.7 	"/>
	<polygon class="st2" points="148.8,398.1 124.4,395.7 124,397.7 148.8,400.1 	"/>
	<polygon class="st2" points="173.2,395.7 148.8,398.1 148.8,400.1 173.6,397.7 	"/>
	<polygon class="st2" points="196.6,388.7 173.2,395.7 173.6,397.7 197.4,390.6 	"/>
	<polygon class="st2" points="218.3,377.3 196.6,388.7 197.4,390.6 219.5,379.1 	"/>
	<polygon class="st2" points="237.4,362 218.3,377.3 219.5,379.1 238.9,363.5 	"/>
	<polygon class="st2" points="253.2,343.3 237.4,362 238.9,363.5 254.9,344.5 	"/>
	<polygon class="st2" points="265.2,322 253.2,343.3 254.9,344.5 267.1,322.8 	"/>
	<polygon class="st2" points="272.8,298.7 265.2,322 267.1,322.8 274.8,299.1 	"/>
	<polygon class="st2" points="275.7,274.4 272.8,298.7 274.8,299.1 277.8,274.5 	"/>
	<polygon class="st2" points="832.5,901.4 835.1,877.9 833.1,877.8 830.5,901 	"/>
	<polygon class="st2" points="825.4,924 832.5,901.4 830.5,901 823.5,923.2 	"/>
	<polygon class="st2" points="814.1,944.7 825.4,924 823.5,923.2 812.4,943.6 	"/>
	<polygon class="st2" points="799,962.9 814.1,944.7 812.4,943.6 797.5,961.5 	"/>
	<polygon class="st2" points="780.6,977.8 799,962.9 797.5,961.5 779.5,976.1 	"/>
	<polygon class="st2" points="759.7,988.9 780.6,977.8 779.5,976.1 758.9,987 	"/>
	<polygon class="st2" points="737,995.7 759.7,988.9 758.9,987 736.6,993.7 	"/>
	<polygon class="st2" points="713.5,998 737,995.7 736.6,993.7 713.5,996 	"/>
	<polygon class="st2" points="689.9,995.7 713.5,998 713.5,996 690.3,993.7 	"/>
	<polygon class="st2" points="667.2,988.9 689.9,995.7 690.3,993.7 668,987 	"/>
	<polygon class="st2" points="646.3,977.8 667.2,988.9 668,987 647.5,976.1 	"/>
	<polygon class="st2" points="628,962.9 646.3,977.8 647.5,976.1 629.4,961.5 	"/>
	<polygon class="st2" points="612.8,944.7 628,962.9 629.4,961.5 614.5,943.6 	"/>
	<polygon class="st2" points="601.5,924 612.8,944.7 614.5,943.6 603.4,923.2 	"/>
	<polygon class="st2" points="594.4,901.4 601.5,924 603.4,923.2 596.4,901 	"/>
	<polygon class="st2" points="591.8,877.9 594.4,901.4 596.4,901 593.9,877.8 	"/>
	<polygon class="st2" points="594.4,846.1 591.8,869.6 593.9,869.6 596.4,846.5 	"/>
	<polygon class="st2" points="601.5,823.5 594.4,846.1 596.4,846.5 603.4,824.3 	"/>
	<polygon class="st2" points="612.8,802.7 601.5,823.5 603.4,824.3 614.5,803.9 	"/>
	<polygon class="st2" points="628,784.5 612.8,802.7 614.5,803.9 629.4,786 	"/>
	<polygon class="st2" points="646.3,769.6 628,784.5 629.4,786 647.5,771.4 	"/>
	<polygon class="st2" points="667.2,758.6 646.3,769.6 647.5,771.4 668,760.5 	"/>
	<polygon class="st2" points="689.9,751.8 667.2,758.6 668,760.5 690.3,753.8 	"/>
	<polygon class="st2" points="713.5,749.5 689.9,751.8 690.3,753.8 713.5,751.5 	"/>
	<polygon class="st2" points="737,751.8 713.5,749.5 713.5,751.5 736.6,753.8 	"/>
	<polygon class="st2" points="759.7,758.6 737,751.8 736.6,753.8 758.9,760.5 	"/>
	<polygon class="st2" points="780.6,769.6 759.7,758.6 758.9,760.5 779.5,771.4 	"/>
	<polygon class="st2" points="799,784.5 780.6,769.6 779.5,771.4 797.5,786 	"/>
	<polygon class="st2" points="814.1,802.7 799,784.5 797.5,786 812.4,803.9 	"/>
	<polygon class="st2" points="825.4,823.5 814.1,802.7 812.4,803.9 823.5,824.3 	"/>
	<polygon class="st2" points="832.5,846.1 825.4,823.5 823.5,824.3 830.5,846.5 	"/>
	<polygon class="st2" points="835.1,869.6 832.5,846.1 830.5,846.5 833.1,869.6 	"/>
	<polygon class="st2" points="584.4,388.2 587.5,415.5 589.6,415.5 586.4,387.8 	"/>
	<polygon class="st2" points="576.1,362 584.4,388.2 586.4,387.8 578,361.2 	"/>
	<polygon class="st2" points="562.9,337.8 576.1,362 578,361.2 564.6,336.7 	"/>
	<polygon class="st2" points="545.2,316.7 562.9,337.8 564.6,336.7 546.7,315.2 	"/>
	<polygon class="st2" points="523.8,299.4 545.2,316.7 546.7,315.2 524.9,297.7 	"/>
	<polygon class="st2" points="499.4,286.5 523.8,299.4 524.9,297.7 500.2,284.6 	"/>
	<polygon class="st2" points="473,278.7 499.4,286.5 500.2,284.6 473.4,276.6 	"/>
	<polygon class="st2" points="445.6,276 473,278.7 473.4,276.6 445.6,274 	"/>
	<polygon class="st2" points="418.2,278.8 445.6,276 445.6,274 417.8,276.7 	"/>
	<polygon class="st2" points="391.8,286.7 418.2,278.8 417.8,276.7 391,284.8 	"/>
	<polygon class="st2" points="367.5,299.6 391.8,286.7 391,284.8 366.3,297.9 	"/>
	<polygon class="st2" points="346.1,316.9 367.5,299.6 366.3,297.9 344.7,315.4 	"/>
	<polygon class="st2" points="328.5,338 346.1,316.9 344.7,315.4 326.8,336.8 	"/>
	<polygon class="st2" points="315.2,362 328.5,338 326.8,336.8 313.3,361.2 	"/>
	<polygon class="st2" points="306.9,388.2 315.2,362 313.3,361.2 304.9,387.8 	"/>
	<polygon class="st2" points="303.7,415.5 306.9,388.2 304.9,387.8 301.7,415.4 	"/>
	<polygon class="st2" points="9.5,302.1 6.1,274.8 4.1,274.9 7.5,302.6 	"/>
	<polygon class="st2" points="18,328.3 9.5,302.1 7.5,302.6 16.1,329.1 	"/>
	<polygon class="st2" points="31.4,352.3 18,328.3 16.1,329.1 29.7,353.5 	"/>
	<polygon class="st2" points="49.2,373.3 31.4,352.3 29.7,353.5 47.7,374.8 	"/>
	<polygon class="st2" points="70.6,390.5 49.2,373.3 47.7,374.8 69.5,392.2 	"/>
	<polygon class="st2" points="95,403.3 70.6,390.5 69.5,392.2 94.2,405.2 	"/>
	<polygon class="st2" points="121.4,411.1 95,403.3 94.2,405.2 121,413.1 	"/>
	<polygon class="st2" points="148.8,413.8 121.4,411.1 121,413.1 148.8,415.8 	"/>
	<polygon class="st2" points="176.2,411.1 148.8,413.8 148.8,415.8 176.6,413.1 	"/>
	<polygon class="st2" points="202.6,403.3 176.2,411.1 176.6,413.1 203.3,405.2 	"/>
	<polygon class="st2" points="226.9,390.5 202.6,403.3 203.3,405.2 228.1,392.2 	"/>
	<polygon class="st2" points="248.4,373.3 226.9,390.5 228.1,392.2 249.8,374.8 	"/>
	<polygon class="st2" points="266.2,352.3 248.4,373.3 249.8,374.8 267.9,353.5 	"/>
	<polygon class="st2" points="279.6,328.3 266.2,352.3 267.9,353.5 281.5,329.1 	"/>
	<polygon class="st2" points="288.1,302.1 279.6,328.3 281.5,329.1 290.1,302.6 	"/>
	<polygon class="st2" points="291.4,274.8 288.1,302.1 290.1,302.6 293.5,274.9 	"/>
	<polygon class="st2" points="854,905.9 857,878.2 855,878.1 851.9,905.5 	"/>
	<polygon class="st2" points="845.6,932.5 854,905.9 851.9,905.5 843.7,931.7 	"/>
	<polygon class="st2" points="832.2,957.1 845.6,932.5 843.7,931.7 830.5,955.9 	"/>
	<polygon class="st2" points="814.3,978.5 832.2,957.1 830.5,955.9 812.9,977 	"/>
	<polygon class="st2" points="792.7,996.1 814.3,978.5 812.9,977 791.5,994.4 	"/>
	<polygon class="st2" points="768,1009.2 792.7,996.1 791.5,994.4 767.2,1007.3 	"/>
	<polygon class="st2" points="741.3,1017.2 768,1009.2 767.2,1007.3 740.9,1015.2 	"/>
	<polygon class="st2" points="713.5,1019.9 741.3,1017.2 740.9,1015.2 713.5,1017.9 	"/>
	<polygon class="st2" points="685.7,1017.2 713.5,1019.9 713.5,1017.9 686.1,1015.2 	"/>
	<polygon class="st2" points="658.9,1009.2 685.7,1017.2 686.1,1015.2 659.7,1007.3 	"/>
	<polygon class="st2" points="634.3,996.1 658.9,1009.2 659.7,1007.3 635.4,994.4 	"/>
	<polygon class="st2" points="612.6,978.5 634.3,996.1 635.4,994.4 614,977 	"/>
	<polygon class="st2" points="594.7,957.1 612.6,978.5 614,977 596.4,955.9 	"/>
	<polygon class="st2" points="581.3,932.5 594.7,957.1 596.4,955.9 583.2,931.7 	"/>
	<polygon class="st2" points="573,905.9 581.3,932.5 583.2,931.7 575,905.5 	"/>
	<polygon class="st2" points="569.9,878.2 573,905.9 575,905.5 572,878.1 	"/>
	<polygon class="st2" points="573,841.6 569.9,869.3 572,869.3 575,842 	"/>
	<polygon class="st2" points="581.3,814.9 573,841.6 575,842 583.2,815.7 	"/>
	<polygon class="st2" points="594.7,790.4 581.3,814.9 583.2,815.7 596.4,791.6 	"/>
	<polygon class="st2" points="612.6,769 594.7,790.4 596.4,791.6 614,770.4 	"/>
	<polygon class="st2" points="634.3,751.4 612.6,769 614,770.4 635.4,753.1 	"/>
	<polygon class="st2" points="658.9,738.3 634.3,751.4 635.4,753.1 659.7,740.2 	"/>
	<polygon class="st2" points="685.7,730.3 658.9,738.3 659.7,740.2 686.1,732.3 	"/>
	<polygon class="st2" points="713.5,727.6 685.7,730.3 686.1,732.3 713.5,729.6 	"/>
	<polygon class="st2" points="741.3,730.3 713.5,727.6 713.5,729.6 740.9,732.3 	"/>
	<polygon class="st2" points="768,738.3 741.3,730.3 740.9,732.3 767.2,740.2 	"/>
	<polygon class="st2" points="792.7,751.4 768,738.3 767.2,740.2 791.5,753.1 	"/>
	<polygon class="st2" points="814.3,769 792.7,751.4 791.5,753.1 812.9,770.4 	"/>
	<polygon class="st2" points="832.2,790.4 814.3,769 812.9,770.4 830.5,791.6 	"/>
	<polygon class="st2" points="845.6,814.9 832.2,790.4 830.5,791.6 843.7,815.7 	"/>
	<polygon class="st2" points="854,841.6 845.6,814.9 843.7,815.7 851.9,842 	"/>
	<polygon class="st2" points="857,869.3 854,841.6 851.9,842 855,869.3 	"/>
	<polygon class="st2" points="243.1,170.5 245.7,147.3 243.7,147.2 241.1,170.1 	"/>
	<polygon class="st2" points="236,192.9 243.1,170.5 241.1,170.1 234.1,192.1 	"/>
	<polygon class="st2" points="224.7,213.5 236,192.9 234.1,192.1 223,212.3 	"/>
	<polygon class="st2" points="209.7,231.5 224.7,213.5 223,212.3 208.2,230 	"/>
	<polygon class="st2" points="191.5,246.2 209.7,231.5 208.2,230 190.3,244.5 	"/>
	<polygon class="st2" points="170.7,257.2 191.5,246.2 190.3,244.5 169.9,255.3 	"/>
	<polygon class="st2" points="148.2,263.9 170.7,257.2 169.9,255.3 147.8,261.9 	"/>
	<polygon class="st2" points="124.9,266.2 148.2,263.9 147.8,261.9 124.9,264.1 	"/>
	<polygon class="st2" points="101.6,263.9 124.9,266.2 124.9,264.1 102,261.9 	"/>
	<polygon class="st2" points="79.1,257.2 101.6,263.9 102,261.9 79.9,255.3 	"/>
	<polygon class="st2" points="58.4,246.2 79.1,257.2 79.9,255.3 59.5,244.5 	"/>
	<polygon class="st2" points="40.1,231.5 58.4,246.2 59.5,244.5 41.6,230 	"/>
	<polygon class="st2" points="25.1,213.5 40.1,231.5 41.6,230 26.8,212.3 	"/>
	<polygon class="st2" points="13.8,192.9 25.1,213.5 26.8,212.3 15.7,192.1 	"/>
	<polygon class="st2" points="6.7,170.5 13.8,192.9 15.7,192.1 8.7,170.1 	"/>
	<polygon class="st2" points="4.1,147.3 6.7,170.5 8.7,170.1 6.1,147.2 	"/>
	<polygon class="st2" points="304.3,241.6 301.7,264.8 303.7,264.9 306.3,242 	"/>
	<polygon class="st2" points="311.4,219.2 304.3,241.6 306.3,242 313.3,220 	"/>
	<polygon class="st2" points="322.7,198.7 311.4,219.2 313.3,220 324.4,199.8 	"/>
	<polygon class="st2" points="337.7,180.7 322.7,198.7 324.4,199.8 339.2,182.1 	"/>
	<polygon class="st2" points="355.9,165.9 337.7,180.7 339.2,182.1 357.1,167.6 	"/>
	<polygon class="st2" points="376.7,155 355.9,165.9 357.1,167.6 377.5,156.9 	"/>
	<polygon class="st2" points="399.2,148.2 376.7,155 377.5,156.9 399.6,150.2 	"/>
	<polygon class="st2" points="422.5,145.9 399.2,148.2 399.6,150.2 422.5,148 	"/>
	<polygon class="st2" points="445.8,148.2 422.5,145.9 422.5,148 445.4,150.2 	"/>
	<polygon class="st2" points="468.3,155 445.8,148.2 445.4,150.2 467.5,156.9 	"/>
	<polygon class="st2" points="489,165.9 468.3,155 467.5,156.9 487.9,167.6 	"/>
	<polygon class="st2" points="507.3,180.7 489,165.9 487.9,167.6 505.8,182.1 	"/>
	<polygon class="st2" points="522.3,198.7 507.3,180.7 505.8,182.1 520.6,199.8 	"/>
	<polygon class="st2" points="533.6,219.2 522.3,198.7 520.6,199.8 531.7,220.1 	"/>
	<polygon class="st2" points="540.7,241.6 533.6,219.2 531.7,220.1 538.7,242 	"/>
	<polygon class="st2" points="543.3,264.8 540.7,241.6 538.7,242 541.3,264.9 	"/>
	<polygon class="st2" points="970.3,84.4 972,70.6 969.9,70.5 968.3,84 	"/>
	<polygon class="st2" points="966,97.7 970.3,84.4 968.3,84 964.1,96.9 	"/>
	<polygon class="st2" points="959.2,109.9 966,97.7 964.1,96.9 957.5,108.7 	"/>
	<polygon class="st2" points="950.2,120.5 959.2,109.9 957.5,108.7 948.8,119.1 	"/>
	<polygon class="st2" points="939.3,129.3 950.2,120.5 948.8,119.1 938.2,127.6 	"/>
	<polygon class="st2" points="927,135.8 939.3,129.3 938.2,127.6 926.2,133.8 	"/>
	<polygon class="st2" points="913.6,139.7 927,135.8 926.2,133.8 913.2,137.7 	"/>
	<polygon class="st2" points="899.7,141.1 913.6,139.7 913.2,137.7 899.7,139 	"/>
	<polygon class="st2" points="885.9,139.7 899.7,141.1 899.7,139 886.3,137.7 	"/>
	<polygon class="st2" points="872.5,135.8 885.9,139.7 886.3,137.7 873.3,133.8 	"/>
	<polygon class="st2" points="860.2,129.3 872.5,135.8 873.3,133.8 861.3,127.6 	"/>
	<polygon class="st2" points="849.3,120.5 860.2,129.3 861.3,127.6 850.7,119.1 	"/>
	<polygon class="st2" points="840.3,109.9 849.3,120.5 850.7,119.1 842,108.7 	"/>
	<polygon class="st2" points="833.5,97.7 840.3,109.9 842,108.7 835.4,96.9 	"/>
	<polygon class="st2" points="829.2,84.4 833.5,97.7 835.4,96.9 831.2,84 	"/>
	<polygon class="st2" points="827.5,70.6 829.2,84.4 831.2,84 829.6,70.5 	"/>
	<polygon class="st2" points="727.4,517.8 725.7,531.6 727.7,531.7 729.4,518.3 	"/>
	<polygon class="st2" points="731.7,504.6 727.4,517.8 729.4,518.3 733.6,505.4 	"/>
	<polygon class="st2" points="738.4,492.4 731.7,504.6 733.6,505.4 740.1,493.5 	"/>
	<polygon class="st2" points="747.4,481.7 738.4,492.4 740.1,493.5 748.9,483.2 	"/>
	<polygon class="st2" points="758.3,473 747.4,481.7 748.9,483.2 759.4,474.7 	"/>
	<polygon class="st2" points="770.7,466.5 758.3,473 759.4,474.7 771.4,468.4 	"/>
	<polygon class="st2" points="784,462.5 770.7,466.5 771.4,468.4 784.4,464.5 	"/>
	<polygon class="st2" points="797.9,461.2 784,462.5 784.4,464.5 797.9,463.2 	"/>
	<polygon class="st2" points="811.8,462.5 797.9,461.2 797.9,463.2 811.4,464.5 	"/>
	<polygon class="st2" points="825.1,466.5 811.8,462.5 811.4,464.5 824.4,468.4 	"/>
	<polygon class="st2" points="837.5,473 825.1,466.5 824.4,468.4 836.4,474.7 	"/>
	<polygon class="st2" points="848.4,481.7 837.5,473 836.4,474.7 846.9,483.2 	"/>
	<polygon class="st2" points="857.4,492.4 848.4,481.7 846.9,483.2 855.7,493.5 	"/>
	<polygon class="st2" points="864.1,504.6 857.4,492.4 855.7,493.5 862.2,505.4 	"/>
	<polygon class="st2" points="868.4,517.8 864.1,504.6 862.2,505.4 866.4,518.3 	"/>
	<polygon class="st2" points="870.1,531.6 868.4,517.8 866.4,518.3 868,531.7 	"/>
	<polygon class="st2" points="954.4,80.9 955.7,70.2 953.7,70.1 952.4,80.5 	"/>
	<polygon class="st2" points="951.1,91.2 954.4,80.9 952.4,80.5 949.2,90.4 	"/>
	<polygon class="st2" points="945.8,100.7 951.1,91.2 949.2,90.4 944.2,99.5 	"/>
	<polygon class="st2" points="938.9,108.9 945.8,100.7 944.2,99.5 937.4,107.5 	"/>
	<polygon class="st2" points="930.4,115.7 938.9,108.9 937.4,107.5 929.3,114 	"/>
	<polygon class="st2" points="920.9,120.7 930.4,115.7 929.3,114 920.1,118.8 	"/>
	<polygon class="st2" points="910.5,123.8 920.9,120.7 920.1,118.8 910.1,121.8 	"/>
	<polygon class="st2" points="899.7,124.8 910.5,123.8 910.1,121.8 899.7,122.8 	"/>
	<polygon class="st2" points="889,123.8 899.7,124.8 899.7,122.8 889.4,121.8 	"/>
	<polygon class="st2" points="878.6,120.7 889,123.8 889.4,121.8 879.4,118.8 	"/>
	<polygon class="st2" points="869,115.7 878.6,120.7 879.4,118.8 870.2,114 	"/>
	<polygon class="st2" points="860.6,108.9 869,115.7 870.2,114 862.1,107.5 	"/>
	<polygon class="st2" points="853.7,100.7 860.6,108.9 862.1,107.5 855.3,99.5 	"/>
	<polygon class="st2" points="848.4,91.2 853.7,100.7 855.3,99.5 850.3,90.4 	"/>
	<polygon class="st2" points="845.1,80.9 848.4,91.2 850.3,90.4 847.1,80.5 	"/>
	<polygon class="st2" points="843.8,70.2 845.1,80.9 847.1,80.5 845.8,70.1 	"/>
	<polygon class="st2" points="743.2,521.3 741.9,532 744,532.1 745.2,521.8 	"/>
	<polygon class="st2" points="746.5,511 743.2,521.3 745.2,521.8 748.4,511.9 	"/>
	<polygon class="st2" points="751.8,501.6 746.5,511 748.4,511.9 753.5,502.8 	"/>
	<polygon class="st2" points="758.8,493.3 751.8,501.6 753.5,502.8 760.2,494.8 	"/>
	<polygon class="st2" points="767.2,486.6 758.8,493.3 760.2,494.8 768.3,488.3 	"/>
	<polygon class="st2" points="776.8,481.5 767.2,486.6 768.3,488.3 777.5,483.4 	"/>
	<polygon class="st2" points="787.1,478.4 776.8,481.5 777.5,483.4 787.5,480.5 	"/>
	<polygon class="st2" points="797.9,477.4 787.1,478.4 787.5,480.5 797.9,479.5 	"/>
	<polygon class="st2" points="808.7,478.4 797.9,477.4 797.9,479.5 808.3,480.5 	"/>
	<polygon class="st2" points="819,481.5 808.7,478.4 808.3,480.5 818.2,483.4 	"/>
	<polygon class="st2" points="828.6,486.6 819,481.5 818.2,483.4 827.5,488.3 	"/>
	<polygon class="st2" points="837,493.3 828.6,486.6 827.5,488.3 835.6,494.8 	"/>
	<polygon class="st2" points="844,501.6 837,493.3 835.6,494.8 842.3,502.8 	"/>
	<polygon class="st2" points="849.2,511 844,501.6 842.3,502.8 847.4,511.8 	"/>
	<polygon class="st2" points="852.6,521.3 849.2,511 847.4,511.8 850.6,521.8 	"/>
	<polygon class="st2" points="853.9,532 852.6,521.3 850.6,521.8 851.8,532.1 	"/>
	<polygon class="st2" points="821.4,628.6 827.3,619.8 825.5,618.8 819.9,627.3 	"/>
	<polygon class="st2" points="813.9,636.1 821.4,628.6 819.9,627.3 812.6,634.5 	"/>
	<polygon class="st2" points="805.1,642 813.9,636.1 812.6,634.5 804.1,640.2 	"/>
	<polygon class="st2" points="795.3,646 805.1,642 804.1,640.2 794.7,644.1 	"/>
	<polygon class="st2" points="784.9,648.1 795.3,646 794.7,644.1 784.7,646.1 	"/>
	<polygon class="st2" points="774.3,648.1 784.9,648.1 784.7,646.1 774.5,646.1 	"/>
	<polygon class="st2" points="763.9,646 774.3,648.1 774.5,646.1 764.5,644.1 	"/>
	<polygon class="st2" points="754.1,642 763.9,646 764.5,644.1 755,640.2 	"/>
	<polygon class="st2" points="745.2,636.1 754.1,642 755,640.2 746.5,634.5 	"/>
	<polygon class="st2" points="737.7,628.6 745.2,636.1 746.5,634.5 739.3,627.3 	"/>
	<polygon class="st2" points="731.8,619.7 737.7,628.6 739.3,627.3 733.6,618.8 	"/>
	<polygon class="st2" points="727.8,609.9 731.8,619.7 733.6,618.8 729.7,609.3 	"/>
	<polygon class="st2" points="725.7,599.5 727.8,609.9 729.7,609.3 727.7,599.3 	"/>
	<polygon class="st2" points="725.7,588.9 725.7,599.5 727.7,599.3 727.7,589.1 	"/>
	<polygon class="st2" points="727.8,578.5 725.7,588.9 727.7,589.1 729.7,579.1 	"/>
	<polygon class="st2" points="731.8,568.7 727.8,578.5 729.7,579.1 733.6,569.6 	"/>
	<polygon class="st2" points="737.7,559.9 731.8,568.6 733.6,569.6 739.3,561.2 	"/>
	<polygon class="st2" points="745.2,552.3 737.7,559.9 739.3,561.2 746.5,553.9 	"/>
	<polygon class="st2" points="754,546.4 745.2,552.3 746.5,553.9 755,548.3 	"/>
	<polygon class="st2" points="763.9,542.4 754,546.4 755,548.3 764.5,544.4 	"/>
	<polygon class="st2" points="774.3,540.3 763.9,542.4 764.5,544.4 774.5,542.4 	"/>
	<polygon class="st2" points="784.9,540.3 774.3,540.3 774.5,542.4 784.7,542.4 	"/>
	<polygon class="st2" points="795.3,542.4 784.9,540.3 784.7,542.4 794.7,544.4 	"/>
	<polygon class="st2" points="805.1,546.4 795.3,542.4 794.7,544.4 804.1,548.3 	"/>
	<polygon class="st2" points="813.9,552.3 805.1,546.4 804.1,548.3 812.6,553.9 	"/>
	<polygon class="st2" points="821.4,559.9 813.9,552.3 812.6,553.9 819.9,561.2 	"/>
	<polygon class="st2" points="827.3,568.7 821.4,559.9 819.9,561.2 825.5,569.7 	"/>
	<polygon class="st2" points="831.4,578.5 827.3,568.7 825.5,569.7 829.4,579.1 	"/>
	<polygon class="st2" points="833.5,588.9 831.4,578.5 829.4,579.1 831.4,589.1 	"/>
	<polygon class="st2" points="833.5,599.5 833.5,588.9 831.4,589.1 831.4,599.3 	"/>
	<polygon class="st2" points="831.4,609.9 833.5,599.5 831.4,599.3 829.4,609.3 	"/>
	<polygon class="st2" points="827.4,619.7 831.4,609.9 829.4,609.3 825.5,618.8 	"/>
	<polygon class="st2" points="871.4,391.8 876.4,415.8 878.5,415.6 873.3,391.2 	"/>
	<polygon class="st2" points="862,369.2 871.4,391.8 873.3,391.2 863.8,368.3 	"/>
	<polygon class="st2" points="848.7,348.6 862,369.2 863.8,368.3 850.3,347.4 	"/>
	<polygon class="st2" points="831.9,330.8 848.7,348.6 850.3,347.4 833.2,329.3 	"/>
	<polygon class="st2" points="812.1,316.3 831.9,330.8 833.2,329.3 813.1,314.5 	"/>
	<polygon class="st2" points="790,305.6 812.1,316.3 813.1,314.5 790.7,303.7 	"/>
	<polygon class="st2" points="766.3,299 790,305.6 790.7,303.7 766.7,297 	"/>
	<polygon class="st2" points="741.9,296.8 766.3,299 766.7,297 741.9,294.8 	"/>
	<polygon class="st2" points="717.4,299 741.9,296.8 741.9,294.8 717.1,297 	"/>
	<polygon class="st2" points="693.8,305.6 717.4,299 717.1,297 693,303.7 	"/>
	<polygon class="st2" points="671.7,316.3 693.8,305.6 693,303.7 670.6,314.5 	"/>
	<polygon class="st2" points="651.9,330.8 671.7,316.3 670.6,314.5 650.5,329.3 	"/>
	<polygon class="st2" points="635.1,348.6 651.9,330.8 650.5,329.3 633.5,347.4 	"/>
	<polygon class="st2" points="621.8,369.2 635.1,348.6 633.5,347.4 619.9,368.3 	"/>
	<polygon class="st2" points="612.4,391.8 621.8,369.2 619.9,368.3 610.5,391.2 	"/>
	<polygon class="st2" points="607.3,415.8 612.4,391.8 610.5,391.2 605.3,415.6 	"/>
	<polygon class="st2" points="612.2,173.3 607.3,149.3 605.3,149.6 610.2,173.9 	"/>
	<polygon class="st2" points="621.3,196 612.2,173.3 610.2,173.9 619.5,196.9 	"/>
	<polygon class="st2" points="634.4,216.6 621.3,196 619.5,196.9 632.8,217.9 	"/>
	<polygon class="st2" points="651.1,234.6 634.4,216.6 632.8,217.9 649.7,236.1 	"/>
	<polygon class="st2" points="670.7,249.3 651.1,234.6 649.7,236.1 669.6,251 	"/>
	<polygon class="st2" points="692.7,260.1 670.7,249.3 669.6,251 691.9,262 	"/>
	<polygon class="st2" points="716.3,266.9 692.7,260.1 691.9,262 715.9,268.9 	"/>
	<polygon class="st2" points="740.7,269.3 716.3,266.9 715.9,268.9 740.7,271.3 	"/>
	<polygon class="st2" points="765.2,267.2 740.7,269.3 740.7,271.3 765.5,269.2 	"/>
	<polygon class="st2" points="859.9,196.3 847,217.2 848.7,218.4 861.8,197.2 	"/>
	<polygon class="st2" points="868.8,173.4 859.9,196.3 861.8,197.2 870.8,174 	"/>
	<polygon class="st2" points="873.4,149.3 868.8,173.4 870.8,174 875.5,149.5 	"/>
	<polygon class="st2" points="352.9,702.7 377.2,712.7 377.8,710.8 353.9,700.8 	"/>
	<polygon class="st2" points="377.2,712.7 403.1,717.9 403.3,715.8 377.8,710.8 	"/>
	<polygon class="st2" points="403.1,717.9 429.4,717.9 429.2,715.8 403.3,715.8 	"/>
	<polygon class="st2" points="429.4,717.9 455.2,712.7 454.6,710.8 429.2,715.8 	"/>
	<polygon class="st2" points="455.2,712.7 479.6,702.7 478.6,700.8 454.6,710.8 	"/>
	<polygon class="st2" points="479.6,702.7 501.5,688 500.2,686.4 478.6,700.8 	"/>
	<polygon class="st2" points="501.5,688 520.1,669.4 518.5,668.1 500.2,686.4 	"/>
	<polygon class="st2" points="520.1,669.4 534.8,647.5 532.9,646.5 518.5,668.1 	"/>
	<polygon class="st2" points="534.8,647.5 544.8,623.1 542.9,622.5 532.9,646.5 	"/>
	<polygon class="st2" points="544.8,623.1 550,597.3 547.9,597.1 542.9,622.5 	"/>
	<polygon class="st2" points="550,597.3 550,571 547.9,571.2 547.9,597.1 	"/>
	<polygon class="st2" points="550,571 544.8,545.1 542.9,545.7 547.9,571.2 	"/>
	<polygon class="st2" points="544.8,545.1 534.8,520.8 532.9,521.8 542.9,545.7 	"/>
	<polygon class="st2" points="534.8,520.8 520.1,498.9 518.5,500.2 532.9,521.8 	"/>
	<polygon class="st2" points="520.1,498.9 501.5,480.3 500.2,481.8 518.5,500.2 	"/>
	<polygon class="st2" points="501.5,480.3 479.6,465.6 478.6,467.4 500.2,481.8 	"/>
	<polygon class="st2" points="479.5,465.6 455.2,455.5 454.6,457.5 478.6,467.4 	"/>
	<polygon class="st2" points="455.2,455.5 429.4,450.4 429.2,452.4 454.6,457.5 	"/>
	<polygon class="st2" points="429.4,450.4 403.1,450.4 403.3,452.4 429.2,452.4 	"/>
	<polygon class="st2" points="403.1,450.4 377.2,455.5 377.8,457.5 403.3,452.4 	"/>
	<polygon class="st2" points="377.2,455.5 352.9,465.6 353.9,467.4 377.8,457.5 	"/>
	<polygon class="st2" points="352.9,465.6 331,480.3 332.3,481.8 353.9,467.4 	"/>
	<polygon class="st2" points="331,480.3 312.3,498.9 313.9,500.2 332.3,481.8 	"/>
	<polygon class="st2" points="312.3,498.9 297.7,520.8 299.5,521.8 313.9,500.2 	"/>
	<polygon class="st2" points="297.7,520.8 287.6,545.1 289.6,545.7 299.5,521.8 	"/>
	<polygon class="st2" points="287.6,545.1 282.5,571 284.5,571.2 289.6,545.7 	"/>
	<polygon class="st2" points="282.5,571 282.5,597.3 284.5,597.1 284.5,571.2 	"/>
	<polygon class="st2" points="282.5,597.3 287.6,623.1 289.6,622.5 284.5,597.1 	"/>
	<polygon class="st2" points="287.6,623.1 297.7,647.5 299.5,646.5 289.6,622.5 	"/>
	<polygon class="st2" points="297.7,647.5 312.3,669.4 313.9,668.1 299.5,646.5 	"/>
	<polygon class="st2" points="312.3,669.4 331,688 332.3,686.4 313.9,668.1 	"/>
	<polygon class="st2" points="331,688 352.8,702.6 353.9,700.8 332.3,686.4 	"/>
	<polygon class="st2" points="878.6,389.6 884,414.9 886,414.7 880.6,389 	"/>
	<polygon class="st2" points="868.8,365.7 878.6,389.6 880.6,389 870.6,364.7 	"/>
	<polygon class="st2" points="854.7,343.9 868.8,365.7 870.6,364.7 856.3,342.7 	"/>
	<polygon class="st2" points="836.9,325.1 854.7,343.9 856.3,342.7 838.3,323.6 	"/>
	<polygon class="st2" points="816,309.8 836.9,325.1 838.3,323.6 817.1,308 	"/>
	<polygon class="st2" points="792.7,298.5 816,309.8 817.1,308 793.4,296.5 	"/>
	<polygon class="st2" points="767.7,291.5 792.7,298.5 793.4,296.5 768.1,289.5 	"/>
	<polygon class="st2" points="741.9,289.2 767.7,291.5 768.1,289.5 741.9,287.1 	"/>
	<polygon class="st2" points="716.1,291.5 741.9,289.2 741.9,287.1 715.7,289.5 	"/>
	<polygon class="st2" points="691.1,298.5 716.1,291.5 715.7,289.5 690.4,296.5 	"/>
	<polygon class="st2" points="667.8,309.8 691.1,298.5 690.4,296.5 666.7,308 	"/>
	<polygon class="st2" points="646.9,325.1 667.8,309.8 666.7,308 645.5,323.6 	"/>
	<polygon class="st2" points="629.1,343.9 646.9,325.1 645.5,323.6 627.5,342.7 	"/>
	<polygon class="st2" points="615,365.7 629.1,343.9 627.5,342.7 613.2,364.7 	"/>
	<polygon class="st2" points="605.1,389.6 615,365.7 613.2,364.7 603.2,389 	"/>
	<polygon class="st2" points="599.8,414.9 605.1,389.6 603.2,389 597.7,414.7 	"/>
	<polygon class="st2" points="604.9,175.5 599.8,150.1 597.7,150.4 602.9,176.1 	"/>
	<polygon class="st2" points="614.5,199.5 604.9,175.5 602.9,176.1 612.7,200.4 	"/>
	<polygon class="st2" points="628.4,221.3 614.5,199.5 612.7,200.4 626.8,222.5 	"/>
	<polygon class="st2" points="646,240.3 628.4,221.3 626.8,222.5 644.6,241.8 	"/>
	<polygon class="st2" points="666.7,255.7 646,240.3 644.6,241.8 665.6,257.5 	"/>
	<polygon class="st2" points="689.9,267.2 666.7,255.7 665.6,257.5 689.2,269.2 	"/>
	<polygon class="st2" points="714.8,274.4 689.9,267.2 689.2,269.2 714.4,276.4 	"/>
	<polygon class="st2" points="740.6,276.9 714.8,274.4 714.4,276.4 740.6,278.9 	"/>
	<polygon class="st2" points="766.5,274.7 740.6,276.9 740.6,278.9 766.8,276.8 	"/>
	<polygon class="st2" points="791.5,267.8 766.5,274.7 766.8,276.8 792.2,269.7 	"/>
	<polygon class="st2" points="814.8,256.4 791.5,267.8 792.2,269.7 815.9,258.2 	"/>
	<polygon class="st2" points="835.6,240.9 814.8,256.4 815.9,258.2 837,242.4 	"/>
	<polygon class="st2" points="853.1,221.7 835.6,240.9 837,242.4 854.8,223 	"/>
	<polygon class="st2" points="866.8,199.7 853.1,221.7 854.8,223 868.6,200.6 	"/>
	<polygon class="st2" points="876.2,175.5 866.8,199.7 868.6,200.6 878.1,176.1 	"/>
	<polygon class="st2" points="881,150 876.2,175.5 878.1,176.1 883.1,150.3 	"/>
	<polygon class="st2" points="108.3,79.7 108.2,138.1 110.3,138.1 110.3,79.3 	"/>
	<polygon class="st2" points="902.1,646 843.6,646 843.3,647.9 902.1,648.1 	"/>
	<polygon class="st2" points="501.2,726.1 501.2,1019.9 503.3,1019.9 503.3,726.1 	"/>
	<polygon class="st2" points="4.1,79.5 108.3,79.7 108.6,77.7 4.1,77.4 	"/>
	<polygon class="st2" points="843.6,646 843.7,541.8 841.7,541.8 841.7,646.3 	"/>
	<polygon class="st2" points="571,391 573.8,415.7 587.5,415.5 584.4,388.2 	"/>
	<polygon class="st2" points="703.7,471.6 703.7,485.1 717.5,449.9 	"/>
	<polygon class="st2" points="558.2,449.9 576.1,471.6 577.2,469 	"/>
	<polygon class="st2" points="599.7,450 613.3,485.2 613.3,471.6 	"/>
	<polygon class="st2" points="633.3,583.9 650.2,450 633.3,450 	"/>
	<polygon class="st2" points="667,583.9 683.8,449.9 666.9,449.9 	"/>
	<polygon class="st2" points="650.2,450 650.1,583.9 650.4,485 	"/>
	<polygon class="st2" points="629.4,485.2 633.3,583.9 633.3,450 	"/>
	<polygon class="st2" points="599.7,450 592.3,471.6 592.3,485.2 	"/>
	<polygon class="st2" points="687.6,485.1 687.6,471.6 683.8,449.9 	"/>
	<polygon class="st2" points="666.9,449.9 665.5,468.9 666.6,471.5 	"/>
	<polygon class="st2" points="717.5,717.9 703.7,682.6 703.7,696.2 	"/>
	<polygon class="st2" points="558.2,717.8 576.1,696.1 576.1,682.6 	"/>
	<polygon class="st2" points="599.7,717.8 613.3,696.1 613.3,682.6 	"/>
	<polygon class="st2" points="650.2,717.8 633.3,583.9 633.3,717.8 	"/>
	<polygon class="st2" points="683.8,717.9 667,583.9 667,717.9 	"/>
	<polygon class="st2" points="650.5,682.7 651.5,680.1 650.1,583.9 	"/>
	<polygon class="st2" points="633.3,717.8 633.3,583.9 629.4,682.6 	"/>
	<polygon class="st2" points="599.7,717.8 592.2,682.6 592.2,696.1 	"/>
	<polygon class="st2" points="683.8,717.9 687.6,682.6 683.8,583.9 	"/>
	<polygon class="st2" points="667,717.9 666.6,682.7 666.6,696.2 	"/>
	<polygon class="st2" points="717.5,449.9 700.6,449.9 702.6,468.9 	"/>
	<polygon class="st2" points="700.6,449.9 700.6,468.1 702.6,468.9 	"/>
	<polygon class="st2" points="700.7,583.9 717.5,583.9 700.6,488.6 	"/>
	<polygon class="st2" points="717.5,583.9 717.5,449.9 703.7,485.1 	"/>
	<polygon class="st2" points="702.6,487.7 700.6,488.6 717.5,583.9 	"/>
	<polygon class="st2" points="703.7,485.1 702.6,487.7 717.5,583.9 	"/>
	<polygon class="st2" points="717.5,449.9 702.6,468.9 703.7,471.6 	"/>
	<polygon class="st2" points="558.2,449.9 558.2,583.9 576.1,485.2 	"/>
	<polygon class="st2" points="558.2,583.9 582.8,583.9 579.8,488.9 	"/>
	<polygon class="st2" points="577.2,487.8 558.2,583.9 579.8,488.9 	"/>
	<polygon class="st2" points="582.8,583.9 582.9,488.9 579.8,488.9 	"/>
	<polygon class="st2" points="582.9,467.9 582.9,450 579.8,467.9 	"/>
	<polygon class="st2" points="582.9,450 558.2,449.9 577.2,469 	"/>
	<polygon class="st2" points="579.8,467.9 582.9,450 577.2,469 	"/>
	<polygon class="st2" points="558.2,583.9 577.2,487.8 576.1,485.2 	"/>
	<polygon class="st2" points="558.2,449.9 576.1,485.2 576.1,471.6 	"/>
	<polygon class="st2" points="599.7,450 599.7,583.9 613.3,485.2 	"/>
	<polygon class="st2" points="599.7,583.9 616.5,583.9 616.7,488.7 	"/>
	<polygon class="st2" points="613.3,485.2 599.7,583.9 614.4,487.8 	"/>
	<polygon class="st2" points="616.7,488.7 614.4,487.8 599.7,583.9 	"/>
	<polygon class="st2" points="616.5,468.1 616.5,450 614.4,469 	"/>
	<polygon class="st2" points="616.5,450 599.7,450 614.4,469 	"/>
	<polygon class="st2" points="613.3,471.6 614.4,469 599.7,450 	"/>
	<polygon class="st2" points="633.3,583.9 650.1,583.9 650.2,450 	"/>
	<polygon class="st2" points="667,583.9 683.8,583.9 683.8,449.9 	"/>
	<polygon class="st2" points="650.1,583.9 667,583.9 662.9,488.8 	"/>
	<polygon class="st2" points="650.1,583.9 662.9,488.8 654.1,488.7 	"/>
	<polygon class="st2" points="651.6,468.9 654.2,467.8 650.2,450 	"/>
	<polygon class="st2" points="650.5,471.5 651.6,468.9 650.2,450 	"/>
	<polygon class="st2" points="650.1,583.9 654.1,488.7 651.5,487.6 	"/>
	<polygon class="st2" points="650.4,485 650.5,471.5 650.2,450 	"/>
	<polygon class="st2" points="650.1,583.9 651.5,487.6 650.4,485 	"/>
	<polygon class="st2" points="633.3,450 616.5,450 625.7,467.9 	"/>
	<polygon class="st2" points="616.5,450 616.5,468.1 617,467.9 	"/>
	<polygon class="st2" points="616.5,450 617,467.9 625.7,467.9 	"/>
	<polygon class="st2" points="616.7,488.7 616.5,583.9 616.9,488.8 	"/>
	<polygon class="st2" points="616.5,583.9 633.3,583.9 625.7,488.9 	"/>
	<polygon class="st2" points="616.9,488.8 616.5,583.9 625.7,488.9 	"/>
	<polygon class="st2" points="633.3,450 625.7,467.9 628.3,469 	"/>
	<polygon class="st2" points="628.3,487.8 625.7,488.9 633.3,583.9 	"/>
	<polygon class="st2" points="633.3,450 628.3,469 629.4,471.6 	"/>
	<polygon class="st2" points="629.4,485.2 628.3,487.8 633.3,583.9 	"/>
	<polygon class="st2" points="633.3,450 629.4,471.6 629.4,485.2 	"/>
	<polygon class="st2" points="599.7,450 582.9,450 588.6,467.9 	"/>
	<polygon class="st2" points="582.9,450 582.9,467.9 588.6,467.9 	"/>
	<polygon class="st2" points="582.8,583.9 599.7,583.9 588.6,488.9 	"/>
	<polygon class="st2" points="599.7,583.9 599.7,450 592.3,485.2 	"/>
	<polygon class="st2" points="588.6,488.9 582.9,488.9 582.8,583.9 	"/>
	<polygon class="st2" points="591.2,487.8 588.6,488.9 599.7,583.9 	"/>
	<polygon class="st2" points="599.7,450 588.6,467.9 591.2,469 	"/>
	<polygon class="st2" points="599.7,450 591.2,469 592.3,471.6 	"/>
	<polygon class="st2" points="592.3,485.2 591.2,487.8 599.7,583.9 	"/>
	<polygon class="st2" points="683.8,583.9 700.7,583.9 691.3,488.8 	"/>
	<polygon class="st2" points="700.7,583.9 700.6,488.6 700,488.8 	"/>
	<polygon class="st2" points="700.7,583.9 700,488.8 691.3,488.8 	"/>
	<polygon class="st2" points="700.6,468.1 700.6,449.9 700,467.9 	"/>
	<polygon class="st2" points="700.6,449.9 683.8,449.9 691.3,467.9 	"/>
	<polygon class="st2" points="700,467.9 700.6,449.9 691.3,467.9 	"/>
	<polygon class="st2" points="683.8,583.9 691.3,488.8 688.7,487.7 	"/>
	<polygon class="st2" points="688.7,469 691.3,467.9 683.8,449.9 	"/>
	<polygon class="st2" points="683.8,583.9 688.7,487.7 687.6,485.1 	"/>
	<polygon class="st2" points="687.6,471.6 688.7,469 683.8,449.9 	"/>
	<polygon class="st2" points="683.8,583.9 687.6,485.1 683.8,449.9 	"/>
	<polygon class="st2" points="650.2,450 654.2,467.8 662.9,467.8 	"/>
	<polygon class="st2" points="650.2,450 662.9,467.8 666.9,449.9 	"/>
	<polygon class="st2" points="662.9,467.8 665.5,468.9 666.9,449.9 	"/>
	<polygon class="st2" points="665.5,487.7 662.9,488.8 667,583.9 	"/>
	<polygon class="st2" points="666.6,485.1 665.5,487.7 667,583.9 	"/>
	<polygon class="st2" points="666.6,471.5 666.6,485.1 666.9,449.9 	"/>
	<polygon class="st2" points="666.6,485.1 667,583.9 666.9,449.9 	"/>
	<polygon class="st2" points="700.6,699.6 700.6,717.9 702.6,698.8 	"/>
	<polygon class="st2" points="700.6,717.9 717.5,717.9 702.6,698.8 	"/>
	<polygon class="st2" points="717.5,717.9 717.5,583.9 703.7,682.6 	"/>
	<polygon class="st2" points="717.5,583.9 700.7,583.9 700.6,679.2 	"/>
	<polygon class="st2" points="703.7,682.6 717.5,583.9 702.6,680 	"/>
	<polygon class="st2" points="700.6,679.2 702.6,680 717.5,583.9 	"/>
	<polygon class="st2" points="703.7,696.2 702.6,698.8 717.5,717.9 	"/>
	<polygon class="st2" points="558.2,717.8 582.8,717.8 577.2,698.8 	"/>
	<polygon class="st2" points="582.8,717.8 582.8,699.8 579.8,699.8 	"/>
	<polygon class="st2" points="582.8,717.8 579.8,699.8 577.2,698.8 	"/>
	<polygon class="st2" points="582.8,583.9 558.2,583.9 579.8,678.9 	"/>
	<polygon class="st2" points="558.2,583.9 558.2,717.8 576.1,682.6 	"/>
	<polygon class="st2" points="577.2,680 558.2,583.9 576.1,682.6 	"/>
	<polygon class="st2" points="579.8,678.9 582.8,678.9 582.8,583.9 	"/>
	<polygon class="st2" points="577.2,680 579.8,678.9 558.2,583.9 	"/>
	<polygon class="st2" points="558.2,717.8 577.2,698.8 576.1,696.1 	"/>
	<polygon class="st2" points="599.7,717.8 616.5,717.8 614.4,698.8 	"/>
	<polygon class="st2" points="616.5,717.8 616.6,699.7 614.4,698.8 	"/>
	<polygon class="st2" points="616.5,583.9 599.7,583.9 616.5,679.1 	"/>
	<polygon class="st2" points="599.7,583.9 599.7,717.8 613.3,682.6 	"/>
	<polygon class="st2" points="614.4,680 616.5,679.1 599.7,583.9 	"/>
	<polygon class="st2" points="613.3,682.6 614.4,680 599.7,583.9 	"/>
	<polygon class="st2" points="599.7,717.8 614.4,698.8 613.3,696.1 	"/>
	<polygon class="st2" points="650.2,717.8 650.1,583.9 633.3,583.9 	"/>
	<polygon class="st2" points="683.8,717.9 683.8,583.9 667,583.9 	"/>
	<polygon class="st2" points="650.2,717.8 654.2,699.9 651.6,698.8 	"/>
	<polygon class="st2" points="650.2,717.8 651.6,698.8 650.5,696.2 	"/>
	<polygon class="st2" points="662.9,679 667,583.9 650.1,583.9 	"/>
	<polygon class="st2" points="654.1,679 662.9,679 650.1,583.9 	"/>
	<polygon class="st2" points="650.1,583.9 650.2,717.8 650.5,682.7 	"/>
	<polygon class="st2" points="650.2,717.8 650.5,696.2 650.5,682.7 	"/>
	<polygon class="st2" points="651.5,680.1 654.1,679 650.1,583.9 	"/>
	<polygon class="st2" points="616.6,699.7 616.5,717.8 616.9,699.8 	"/>
	<polygon class="st2" points="616.5,717.8 633.3,717.8 625.7,699.8 	"/>
	<polygon class="st2" points="616.9,699.8 616.5,717.8 625.7,699.8 	"/>
	<polygon class="st2" points="633.3,583.9 616.5,583.9 625.7,678.9 	"/>
	<polygon class="st2" points="616.5,583.9 616.5,679.1 617,678.9 	"/>
	<polygon class="st2" points="616.5,583.9 617,678.9 625.7,678.9 	"/>
	<polygon class="st2" points="633.3,583.9 625.7,678.9 628.3,680 	"/>
	<polygon class="st2" points="628.3,698.7 625.7,699.8 633.3,717.8 	"/>
	<polygon class="st2" points="629.4,696.1 628.3,698.7 633.3,717.8 	"/>
	<polygon class="st2" points="633.3,583.9 628.3,680 629.4,682.6 	"/>
	<polygon class="st2" points="629.4,682.6 629.4,696.1 633.3,717.8 	"/>
	<polygon class="st2" points="582.8,699.8 582.8,717.8 588.5,699.8 	"/>
	<polygon class="st2" points="582.8,717.8 599.7,717.8 588.5,699.8 	"/>
	<polygon class="st2" points="599.7,717.8 599.7,583.9 592.2,682.6 	"/>
	<polygon class="st2" points="599.7,583.9 582.8,583.9 588.5,678.9 	"/>
	<polygon class="st2" points="592.2,682.6 599.7,583.9 591.2,680 	"/>
	<polygon class="st2" points="582.8,583.9 582.8,678.9 588.5,678.9 	"/>
	<polygon class="st2" points="588.5,678.9 591.2,680 599.7,583.9 	"/>
	<polygon class="st2" points="591.2,698.8 588.5,699.8 599.7,717.8 	"/>
	<polygon class="st2" points="592.2,696.1 591.2,698.8 599.7,717.8 	"/>
	<polygon class="st2" points="683.8,717.9 700.6,717.9 691.3,699.9 	"/>
	<polygon class="st2" points="700.6,717.9 700.6,699.6 700,699.9 	"/>
	<polygon class="st2" points="700.6,717.9 700,699.9 691.3,699.9 	"/>
	<polygon class="st2" points="700.6,679.2 700.7,583.9 700,678.9 	"/>
	<polygon class="st2" points="700.7,583.9 683.8,583.9 691.3,678.9 	"/>
	<polygon class="st2" points="700,678.9 700.7,583.9 691.3,678.9 	"/>
	<polygon class="st2" points="683.8,717.9 691.3,699.9 688.7,698.8 	"/>
	<polygon class="st2" points="688.7,680 691.3,678.9 683.8,583.9 	"/>
	<polygon class="st2" points="683.8,717.9 688.7,698.8 687.6,696.2 	"/>
	<polygon class="st2" points="687.6,682.6 688.7,680 683.8,583.9 	"/>
	<polygon class="st2" points="683.8,717.9 687.6,696.2 687.6,682.6 	"/>
	<polygon class="st2" points="662.9,699.9 654.2,699.9 650.2,717.8 	"/>
	<polygon class="st2" points="667,583.9 662.9,679 665.5,680.1 	"/>
	<polygon class="st2" points="667,583.9 665.5,680.1 666.6,682.7 	"/>
	<polygon class="st2" points="662.9,699.9 650.2,717.8 667,717.9 	"/>
	<polygon class="st2" points="665.5,698.8 662.9,699.9 667,717.9 	"/>
	<polygon class="st2" points="667,717.9 667,583.9 666.6,682.7 	"/>
	<polygon class="st2" points="666.6,696.2 665.5,698.8 667,717.9 	"/>
</g>
<g id="Layer_5">
	<g>
		<path class="st3" d="M478,1012.2H-31.7c-6.6,0-12-5.4-12-12V744.3c0-6.6,5.4-12,12-12H478c6.6,0,12,5.4,12,12v255.9
			C490,1006.8,484.6,1012.2,478,1012.2z"/>
		<path class="st3" d="M277.1,710.9H26.2c-6.6,0-12-5.4-12-12V443c0-6.6,5.4-12,12-12h250.9V710.9z"/>
		<path class="st4" d="M277.1,672.7H97.9c-6.6,0-12-5.4-12-12V481.2c0-6.6,5.4-12,12-12h179.2V672.7z"/>
	</g>
</g>
<g id="Layer_2">
	<linearGradient id="SVGID_1_" gradientUnits="userSpaceOnUse" x1="635.8507" y1="494.2865" x2="635.8507" y2="679.3482">
		<stop  offset="0.1188" style="stop-color:#FFA631"/>
		<stop  offset="0.2234" style="stop-color:#F79F2F"/>
		<stop  offset="0.3851" style="stop-color:#E18D28"/>
		<stop  offset="0.5837" style="stop-color:#BE701D"/>
		<stop  offset="0.8094" style="stop-color:#8D480E"/>
		<stop  offset="1" style="stop-color:#5E2100"/>
	</linearGradient>
	<rect x="556.8" y="493.4" class="st5" width="158.2" height="184.3"/>
	<path class="st6" d="M556.8,450.4v46.3h141.7c6.3,0,11.4,5.1,11.4,11.3v153.2c0,6.2-5.2,11.3-11.4,11.3H556.8v45.3h160.8V450.4
		H556.8z"/>
</g>
<g id="Layer_3">
	<g>
		<g>
			<path class="st7" d="M446.5,904.6c0,2.3-0.4,4.3-1.1,6c-0.8,1.7-1.8,3.1-3.2,4c-1.4,1-3,1.4-4.9,1.4h-0.6c-1.7,0-3.2-0.5-4.7-1.5
				c-1.5-1-2.6-2.3-3.3-4c-0.6,1.4-1.6,2.6-2.8,3.4c-1.2,0.9-2.5,1.3-3.8,1.3h-0.9c-2.6,0-4.7-1-6.3-2.9c-1.6-2-2.4-4.6-2.4-7.8
				s0.8-5.8,2.4-7.8c1.6-2,3.7-2.9,6.3-2.9h0.9c1.4,0,2.7,0.4,3.9,1.3c1.2,0.9,2.1,2,2.7,3.5c0.7-1.7,1.9-3,3.3-4
				c1.5-1,3-1.5,4.7-1.5h0.6c1.9,0,3.5,0.5,4.9,1.4c1.4,1,2.5,2.3,3.2,4C446.1,900.3,446.5,902.3,446.5,904.6z M426.1,904.6
				c0-1.2-0.3-2.1-1-2.8c-0.7-0.7-1.6-1.1-2.7-1.1h-0.4c-1,0-1.9,0.4-2.5,1.1c-0.6,0.7-1,1.7-1,2.8c0,1.2,0.3,2.1,1,2.8
				s1.5,1.1,2.5,1.1h0.4c1.1,0,2-0.4,2.7-1.1C425.8,906.7,426.1,905.8,426.1,904.6z M440.4,904.6c0-1.4-0.4-2.5-1.1-3.4
				c-0.7-0.9-1.7-1.3-3-1.3h-0.4c-1.1,0-2,0.4-2.7,1.3c-0.7,0.9-1,2-1,3.4c0,1.4,0.3,2.5,1,3.4c0.7,0.9,1.6,1.3,2.7,1.3h0.4
				c1.2,0,2.2-0.4,2.9-1.3C440,907.2,440.4,906,440.4,904.6z"/>
			<path class="st7" d="M446.5,876.2c0,3.6-0.8,6.3-2.5,8.1c-1.7,1.8-4,2.7-6.9,2.7h-15.2c-2.9,0-5.3-0.9-6.9-2.7
				c-1.7-1.8-2.5-4.5-2.5-8.1c0-3.6,0.8-6.3,2.5-8.1s4-2.7,6.9-2.7H437c2.9,0,5.3,0.9,6.9,2.7C445.7,869.9,446.5,872.6,446.5,876.2z
				 M440.5,876.2c0-1.4-0.4-2.4-1.3-3.1c-0.9-0.6-2.1-0.9-3.7-0.9h-12c-1.6,0-2.8,0.3-3.7,0.9s-1.3,1.7-1.3,3.1
				c0,1.4,0.4,2.4,1.3,3.1c0.9,0.6,2.1,0.9,3.7,0.9h12c1.6,0,2.8-0.3,3.7-0.9C440,878.6,440.5,877.6,440.5,876.2z"/>
			<path class="st7" d="M446.5,848c0,3.6-0.8,6.3-2.5,8.1c-1.7,1.8-4,2.7-6.9,2.7h-15.2c-2.9,0-5.3-0.9-6.9-2.7
				c-1.7-1.8-2.5-4.5-2.5-8.1c0-3.6,0.8-6.3,2.5-8.1s4-2.7,6.9-2.7H437c2.9,0,5.3,0.9,6.9,2.7C445.7,841.7,446.5,844.4,446.5,848z
				 M440.5,848c0-1.4-0.4-2.4-1.3-3.1c-0.9-0.6-2.1-0.9-3.7-0.9h-12c-1.6,0-2.8,0.3-3.7,0.9s-1.3,1.7-1.3,3.1c0,1.4,0.4,2.4,1.3,3.1
				c0.9,0.6,2.1,0.9,3.7,0.9h12c1.6,0,2.8-0.3,3.7-0.9C440,850.4,440.5,849.4,440.5,848z"/>
			<path class="st7" d="M454.9,892.4h18.5v3.9h-18.5V892.4z"/>
			<path class="st7" d="M473.6,881.9c0,1.4-0.2,2.8-0.6,4.2c-0.4,1.3-1,2.5-1.7,3.4l-2.9-1.8c0.6-0.8,1-1.7,1.4-2.7s0.5-2.1,0.5-3.1
				c0-1.2-0.2-2.2-0.6-2.9c-0.4-0.7-0.9-1-1.6-1h0c-0.5,0-0.9,0.2-1.2,0.5c-0.3,0.3-0.5,0.8-0.6,1.4s-0.3,1.2-0.3,1.8
				c-0.1,0.8-0.3,1.6-0.4,2.4c-0.2,0.8-0.4,1.5-0.8,2.2s-0.9,1.2-1.5,1.6c-0.7,0.4-1.6,0.6-2.7,0.6h0c-1.8,0-3.2-0.6-4.2-1.9
				s-1.5-3.1-1.5-5.5c0-1.1,0.2-2.2,0.5-3.3s0.8-2.2,1.4-3.1l3,1.6c-1,1.6-1.6,3.2-1.6,4.9c0,1.2,0.2,2.1,0.5,2.7
				c0.4,0.6,0.8,1,1.5,1h0c0.6,0,1-0.2,1.3-0.6c0.3-0.4,0.5-0.9,0.7-1.5s0.3-1.3,0.4-2c0.1-0.8,0.3-1.5,0.5-2.3
				c0.2-0.8,0.5-1.5,0.9-2.1c0.4-0.6,0.9-1.1,1.5-1.5c0.7-0.4,1.5-0.6,2.5-0.6h0c1.8,0,3.2,0.7,4.1,2
				C473.1,877.6,473.6,879.4,473.6,881.9z"/>
			<path class="st7" d="M473.6,863.8c0,1.5-0.3,2.8-0.8,3.9c-0.6,1.1-1.4,2-2.4,2.6c-1,0.6-2.2,0.9-3.6,0.9h-5.2
				c-1.4,0-2.6-0.3-3.6-0.9s-1.8-1.5-2.4-2.6s-0.8-2.4-0.8-3.9s0.3-2.8,0.8-3.9s1.4-2,2.4-2.6s2.2-0.9,3.6-0.9h5.2
				c1.4,0,2.6,0.3,3.6,0.9c1,0.6,1.8,1.5,2.4,2.6C473.4,861,473.6,862.3,473.6,863.8z M470.1,863.8c0-1-0.3-1.9-0.9-2.5
				c-0.6-0.6-1.4-0.9-2.4-0.9h-5.4c-1,0-1.8,0.3-2.4,0.9c-0.6,0.6-0.9,1.5-0.9,2.5s0.3,1.9,0.9,2.5c0.6,0.6,1.4,0.9,2.4,0.9h5.4
				c1,0,1.8-0.3,2.4-0.9C469.9,865.7,470.1,864.8,470.1,863.8z"/>
		</g>
	</g>
	<rect x="341.7" y="732.3" class="st8" width="28.7" height="279.9"/>
	<g>
		<g>
			<g>
				<path class="st7" d="M394,994.1c0,0.9-0.2,1.7-0.6,2.3c-0.4,0.6-1,1.1-1.7,1.5c-0.7,0.3-1.7,0.5-2.7,0.5h-3.7
					c-1.1,0-2-0.2-2.7-0.5c-0.8-0.3-1.3-0.8-1.7-1.5c-0.4-0.6-0.6-1.4-0.6-2.3c0-0.7,0.2-1.4,0.5-2c0.4-0.6,0.9-1.1,1.6-1.4
					c0.7-0.4,1.5-0.6,2.5-0.8v2.3c-0.5,0.1-0.8,0.2-1.1,0.4c-0.3,0.2-0.6,0.4-0.7,0.7c-0.2,0.3-0.3,0.5-0.3,0.9
					c0,0.6,0.2,1.1,0.7,1.4c0.4,0.3,1,0.5,1.8,0.5h3.7c0.8,0,1.4-0.2,1.8-0.5c0.4-0.3,0.7-0.8,0.7-1.4c0-0.5-0.2-0.9-0.5-1.2
					s-0.8-0.6-1.4-0.7v-2.3c0.9,0.2,1.8,0.4,2.4,0.8s1.2,0.9,1.5,1.4C393.8,992.7,394,993.3,394,994.1z"/>
				<path class="st7" d="M387.8,988v-5.8h2.4v5.8H387.8z"/>
				<path class="st7" d="M391.8,980.3h-2.3l-9.1-3.6v-2.5l9,3.5v-5.3h2.4V980.3z M393.9,975.6h-7.9v-2.2h7.9V975.6z"/>
				<path class="st7" d="M380.4,967.6h13.5v2.3h-10.3l0.8,1.3h-3.1l-0.9-1.3V967.6z"/>
			</g>
		</g>
	</g>
	<g>
		<g>
			<path class="st7" d="M453.7,983.4c0,2-0.6,3.6-1.8,4.9c-1.2,1.3-2.9,2-5.1,2.2h0v-3.7h0c0.9-0.1,1.7-0.5,2.2-1
				c0.5-0.6,0.8-1.3,0.8-2.2c0-1-0.3-1.7-0.9-2.3c-0.6-0.5-1.5-0.8-2.6-0.8h-0.8c-1.2,0-2.1,0.2-2.8,0.7c-0.7,0.5-1,1.2-1,2.1v1.7
				h-4v-1.7c0-0.8-0.3-1.4-0.9-1.8c-0.6-0.4-1.4-0.6-2.4-0.6h-0.7c-1,0-1.7,0.2-2.2,0.7c-0.5,0.5-0.8,1.1-0.8,1.9
				c0,0.7,0.3,1.4,0.8,1.9c0.5,0.5,1.2,0.9,2.2,1.1h0v3.7h0c-2.2-0.3-3.9-1-5.1-2.2s-1.8-2.7-1.8-4.5c0-2,0.6-3.5,1.8-4.7
				c1.2-1.1,2.8-1.7,5-1.7h0.9c1.3,0,2.4,0.3,3.3,0.9s1.6,1.4,2.1,2.5c0.3-1.2,1-2.1,2-2.8c1.1-0.7,2.4-1,4.1-1h0.9
				c2.3,0,4,0.6,5.3,1.7C453.1,979.6,453.7,981.2,453.7,983.4z"/>
			<path class="st7" d="M453.7,966.4c0,2-0.7,3.6-2.1,4.7c-1.4,1.1-3.4,1.7-5.9,1.7h0c-1.1,0-2.3-0.1-3.6-0.4
				c-1.3-0.3-2.5-0.7-3.7-1.2l-11.4-4.9v-4l13.2,5.8l-0.7,0.4c-1.2-0.5-1.8-1.5-1.8-2.9c0-1.8,0.7-3.3,2.1-4.3
				c1.4-1,3.3-1.5,5.8-1.5h0c2.6,0,4.6,0.6,6,1.8C453,962.6,453.7,964.3,453.7,966.4z M449.7,966.4c0-1-0.3-1.8-1-2.3
				c-0.7-0.5-1.6-0.8-2.8-0.8h0c-1.3,0-2.4,0.3-3.1,0.8c-0.7,0.5-1.1,1.3-1.1,2.3c0,0.9,0.4,1.6,1.1,2c0.7,0.5,1.8,0.7,3.1,0.7h0
				c1.2,0,2.2-0.2,2.8-0.7C449.4,968,449.7,967.3,449.7,966.4z"/>
			<path class="st7" d="M472.2,985.6c0,1.6-0.5,2.8-1.5,3.7c-1,0.9-2.4,1.3-4.2,1.3h-1.4c-1.9,0-3.3-0.4-4.4-1.3s-1.5-2-1.5-3.6
				c0-1.4,0.6-2.6,1.8-3.4s2.9-1.2,5.2-1.2h0.8v7.5h-2.2v-4.9l-0.3,0c-0.7,0.1-1.3,0.3-1.7,0.6c-0.4,0.3-0.6,0.7-0.6,1.3
				c0,0.7,0.2,1.2,0.7,1.6s1.2,0.6,2,0.6h1.6c0.9,0,1.5-0.2,2-0.6c0.5-0.4,0.7-1,0.7-1.8c0-0.8-0.3-1.5-0.9-2.2l1.9-1.9
				c0.6,0.6,1.1,1.2,1.4,1.9C472,984.1,472.2,984.8,472.2,985.6z"/>
			<path class="st7" d="M472,972.9l-5.2,2.7l-7.4,4.2v-3.2l5.1-2.6l7.5-4.3V972.9z M466.2,973.4l-2.3,1.7l-4.5-2v-3.2L466.2,973.4z
				 M472,980l-6.9-3.9l2.3-1.7l4.7,2.5V980z"/>
			<path class="st7" d="M472.2,962.7c0,0.6-0.2,1.2-0.6,1.7c-0.4,0.5-0.9,0.8-1.6,1l-2.9-0.1c0.4,0,0.8-0.1,1.1-0.2
				c0.3-0.1,0.5-0.3,0.7-0.6c0.2-0.2,0.2-0.5,0.2-0.9c0-0.5-0.2-1-0.6-1.3c-0.4-0.3-1-0.4-1.7-0.4h-2c-0.8,0-1.4,0.1-1.8,0.4
				c-0.4,0.3-0.6,0.7-0.6,1.3c0,0.3,0.1,0.6,0.2,0.9s0.4,0.4,0.7,0.6c0.3,0.1,0.7,0.2,1.1,0.2l-2.8,0.2c-0.7-0.3-1.3-0.7-1.7-1.2
				s-0.6-1-0.6-1.6c0-1.2,0.5-2.1,1.4-2.7c1-0.6,2.3-1,4.1-1h2c1.7,0,3.1,0.3,4,1C471.7,960.6,472.2,961.5,472.2,962.7z
				 M477.1,968.1h-17.7v-2.9h17.7V968.1z"/>
		</g>
	</g>
	<g>
		<g>
			<g>
				<path class="st7" d="M425.4,790.5H448v3.8h-17.3l1.4,2.3h-5.1l-1.5-2.3V790.5z"/>
				<path class="st7" d="M448.2,781.1c0,1.8-0.6,3.2-1.7,4.4c-1.1,1.2-2.7,1.8-4.7,1.9h0v-3.8h0c0.7-0.1,1.2-0.3,1.6-0.7
					c0.4-0.4,0.6-0.8,0.6-1.4c0-0.7-0.2-1.2-0.7-1.6s-1.1-0.6-1.9-0.6H441c-0.9,0-1.5,0.2-2,0.5c-0.5,0.3-0.7,0.8-0.7,1.3v1.7h-4.1
					v-1.7c0-0.5-0.2-0.8-0.6-1.1s-1-0.4-1.7-0.4h-0.4c-0.7,0-1.2,0.1-1.6,0.4c-0.4,0.3-0.6,0.7-0.6,1.2c0,0.5,0.2,0.9,0.7,1.3
					c0.4,0.4,1,0.6,1.8,0.7h0v3.8h0c-2.1-0.2-3.7-0.8-4.9-1.9c-1.2-1.1-1.7-2.5-1.7-4.1c0-1.7,0.5-3.1,1.5-4c1-1,2.3-1.4,4.1-1.4
					h0.7c1.1,0,2.1,0.2,2.9,0.7c0.8,0.5,1.5,1.1,1.9,2c0.3-0.9,0.9-1.7,1.8-2.2c0.9-0.5,2.1-0.8,3.6-0.8h0.7c1.9,0,3.3,0.5,4.4,1.5
					C447.7,777.8,448.2,779.2,448.2,781.1z"/>
				<path class="st7" d="M448.2,766.2c0,1.6-0.6,2.9-1.8,4c-1.2,1.1-2.8,1.7-5,1.8h0v-3.7h0c0.8-0.1,1.5-0.3,1.9-0.7
					c0.5-0.4,0.7-0.9,0.7-1.4c0-0.6-0.2-1.2-0.7-1.5c-0.5-0.4-1.2-0.5-2.1-0.5h-1.9c-0.9,0-1.6,0.2-2,0.5c-0.5,0.3-0.7,0.8-0.7,1.3
					c0,0.5,0.2,1,0.5,1.4c0.3,0.4,0.7,0.6,1.3,0.8v3.5h-13v-10.6h4.1v6.9h4c-0.3-0.3-0.6-0.7-0.7-1.2s-0.3-1-0.3-1.4
					c0-1.5,0.6-2.7,1.8-3.6c1.2-0.8,2.9-1.3,5.1-1.3h1.9c2.2,0,3.9,0.5,5.1,1.5C447.6,762.9,448.2,764.3,448.2,766.2z"/>
				<path class="st7" d="M473,797.1h-2.6v-3.8c0-1-0.2-1.8-0.6-2.3c-0.4-0.5-1-0.8-1.8-0.8h-4.3c-0.8,0-1.4,0.3-1.8,0.8
					c-0.4,0.5-0.6,1.3-0.6,2.3v3.8h-2.6v-3.7c0-2,0.5-3.5,1.4-4.6c0.9-1.1,2.2-1.6,3.8-1.6h4.1c1.6,0,2.9,0.5,3.8,1.6
					s1.4,2.6,1.4,4.6V797.1z M473,798.6h-14.4v-3H473V798.6z"/>
				<path class="st7" d="M473,776.3l-5.9,3.8l-0.5,0.3l-8.1,5.2v-3.1l5.5-3.5l0.6-0.4l8.3-5.4V776.3z M473,785.8l-8.9-5.7l-5.6-3.5
					v-3.1l8.2,5.2l6.3,4V785.8z"/>
				<path class="st7" d="M473,765.2h-6.2c-0.5,0-0.9,0.2-1.2,0.5c-0.3,0.3-0.4,0.8-0.4,1.3c0,0.5,0.1,1,0.4,1.3s0.7,0.4,1.2,0.4
					l-2.3,0.2c-0.6-0.3-1.1-0.7-1.4-1.2c-0.3-0.5-0.5-1.1-0.5-1.8c0-1.2,0.4-2.1,1.1-2.7s1.8-1,3.1-1h6.3V765.2z M473,771.7h-10.3
					v-3H473V771.7z"/>
				<path class="st7" d="M473,759.9h-2.8v-3.1h2.8V759.9z"/>
			</g>
		</g>
		<line class="st9" x1="454.1" y1="804.5" x2="454.1" y2="751.6"/>
	</g>
	<g>
		<g>
			<path class="st10" d="M364.7,925.6c0,1.1-0.2,2-0.6,2.8c-0.4,0.8-1,1.3-1.8,1.8c-0.8,0.4-1.7,0.6-2.9,0.6h-3.9
				c-1.1,0-2.1-0.2-2.9-0.6c-0.8-0.4-1.4-1-1.8-1.8c-0.4-0.8-0.6-1.7-0.6-2.8c0-0.9,0.2-1.7,0.6-2.4c0.4-0.7,0.9-1.3,1.7-1.7
				s1.6-0.8,2.7-1v2.8c-0.5,0.1-0.9,0.3-1.2,0.5s-0.6,0.5-0.8,0.8c-0.2,0.3-0.3,0.7-0.3,1c0,0.8,0.2,1.3,0.7,1.7s1.1,0.6,1.9,0.6
				h3.9c0.8,0,1.5-0.2,1.9-0.6s0.7-1,0.7-1.7c0-0.6-0.2-1.1-0.5-1.5c-0.4-0.4-0.9-0.7-1.5-0.8v-2.8c1,0.2,1.8,0.5,2.5,1
				s1.2,1,1.6,1.7C364.5,923.9,364.7,924.7,364.7,925.6z"/>
			<path class="st10" d="M359,916.8h-2.6v-4.5c0-0.5-0.2-0.9-0.5-1.2c-0.3-0.3-0.7-0.4-1.3-0.4c-0.5,0-1,0.1-1.3,0.4
				c-0.3,0.3-0.5,0.7-0.5,1.2v4.5h-2.6v-4.5c0-0.9,0.2-1.7,0.5-2.3c0.4-0.7,0.9-1.2,1.5-1.6s1.4-0.6,2.3-0.6s1.6,0.2,2.3,0.6
				s1.2,0.9,1.5,1.6c0.4,0.7,0.5,1.5,0.5,2.3V916.8z M364.5,918.1h-14.2v-2.7h14.2V918.1z"/>
			<path class="st10" d="M364.7,898.7c0,1.3-0.3,2.3-1,3.2c-0.7,0.8-1.7,1.3-2.9,1.4h0v-2.8h0c0.4-0.1,0.8-0.2,1-0.5
				c0.2-0.3,0.4-0.6,0.4-1c0-0.5-0.1-0.9-0.4-1.2c-0.3-0.3-0.7-0.4-1.2-0.4h-0.4c-0.5,0-1,0.1-1.3,0.3s-0.4,0.5-0.4,1v1.2h-2.6v-1.2
				c0-0.3-0.1-0.6-0.4-0.8s-0.6-0.3-1.1-0.3h-0.3c-0.4,0-0.8,0.1-1,0.3s-0.4,0.5-0.4,0.9c0,0.4,0.1,0.7,0.4,0.9
				c0.3,0.3,0.7,0.4,1.2,0.5h0v2.8h0c-1.3-0.1-2.3-0.6-3.1-1.4s-1.1-1.8-1.1-2.9c0-1.3,0.3-2.2,0.9-2.9c0.6-0.7,1.5-1,2.6-1h0.5
				c0.7,0,1.3,0.2,1.8,0.5s0.9,0.8,1.2,1.4c0.2-0.7,0.5-1.2,1.1-1.6c0.6-0.4,1.4-0.6,2.3-0.6h0.5c1.2,0,2.1,0.4,2.7,1.1
				C364.4,896.3,364.7,897.3,364.7,898.7z"/>
			<path class="st10" d="M364.7,888.3c0,1.3-0.4,2.3-1.1,3c-0.8,0.7-1.8,1.1-3.2,1.1h0c-0.6,0-1.3-0.1-1.9-0.3s-1.3-0.4-2-0.7
				l-6.1-2.9v-3l7.1,3.4l-0.4,0.7c-0.6-0.3-1-0.9-1-1.8c0-1.2,0.4-2.1,1.1-2.7s1.8-1,3.1-1h0c1.4,0,2.5,0.4,3.2,1.1
				S364.7,886.9,364.7,888.3z M362.1,888.3c0-0.5-0.1-0.9-0.4-1.2s-0.7-0.4-1.2-0.4h0c-0.6,0-1,0.1-1.3,0.4s-0.5,0.7-0.5,1.2
				c0,0.4,0.2,0.8,0.5,1c0.3,0.2,0.8,0.4,1.3,0.4h0c0.5,0,0.9-0.1,1.2-0.4C362,889.1,362.1,888.7,362.1,888.3z"/>
			<path class="st10" d="M358.1,878.3v-7h2.6v7H358.1z"/>
			<path class="st10" d="M364.5,865.6h-2.4l-6.4-4.9c-0.3-0.2-0.6-0.4-0.9-0.5c-0.3-0.1-0.6-0.2-0.8-0.2h0c-0.4,0-0.7,0.1-0.9,0.4
				c-0.2,0.2-0.3,0.6-0.3,1.1c0,0.4,0.1,0.8,0.4,1.1s0.7,0.4,1.3,0.5h0v2.7h0c-1.4-0.1-2.4-0.5-3.2-1.3s-1.1-1.8-1.1-3
				c0-1.3,0.3-2.4,1-3.1s1.6-1.1,2.8-1.1h0c0.6,0,1.3,0.1,1.9,0.3s1.2,0.5,1.7,0.9l4.4,3.5v-4.9h2.6V865.6z"/>
			<path class="st10" d="M364.7,850.8c0,1.4-0.4,2.5-1.1,3.2c-0.7,0.7-1.7,1.1-2.9,1.1h-6.5c-1.3,0-2.2-0.4-3-1.1
				c-0.7-0.7-1.1-1.8-1.1-3.2c0-1.4,0.4-2.5,1.1-3.2s1.7-1.1,3-1.1h6.5c1.3,0,2.2,0.4,3,1.1C364.3,848.3,364.7,849.4,364.7,850.8z
				 M362.1,850.8c0-0.6-0.2-1-0.6-1.2c-0.4-0.2-0.9-0.4-1.6-0.4h-5.1c-0.7,0-1.2,0.1-1.6,0.4c-0.4,0.2-0.6,0.6-0.6,1.2
				c0,0.6,0.2,1,0.6,1.2c0.4,0.2,0.9,0.4,1.6,0.4h5.1c0.7,0,1.2-0.1,1.6-0.4C361.9,851.7,362.1,851.3,362.1,850.8z"/>
			<path class="st10" d="M364.7,839.7c0,1.4-0.4,2.5-1.1,3.2c-0.7,0.7-1.7,1.1-2.9,1.1h-6.5c-1.3,0-2.2-0.4-3-1.1
				c-0.7-0.7-1.1-1.8-1.1-3.2c0-1.4,0.4-2.5,1.1-3.2s1.7-1.1,3-1.1h6.5c1.3,0,2.2,0.4,3,1.1C364.3,837.3,364.7,838.3,364.7,839.7z
				 M362.1,839.7c0-0.6-0.2-1-0.6-1.2c-0.4-0.2-0.9-0.4-1.6-0.4h-5.1c-0.7,0-1.2,0.1-1.6,0.4c-0.4,0.2-0.6,0.6-0.6,1.2
				c0,0.6,0.2,1,0.6,1.2c0.4,0.2,0.9,0.4,1.6,0.4h5.1c0.7,0,1.2-0.1,1.6-0.4C361.9,840.7,362.1,840.3,362.1,839.7z"/>
			<path class="st10" d="M364.5,833.2h-2.4l-6.4-4.9c-0.3-0.2-0.6-0.4-0.9-0.5c-0.3-0.1-0.6-0.2-0.8-0.2h0c-0.4,0-0.7,0.1-0.9,0.4
				c-0.2,0.2-0.3,0.6-0.3,1.1c0,0.4,0.1,0.8,0.4,1.1s0.7,0.4,1.3,0.5h0v2.7h0c-1.4-0.1-2.4-0.5-3.2-1.3s-1.1-1.8-1.1-3
				c0-1.3,0.3-2.4,1-3.1s1.6-1.1,2.8-1.1h0c0.6,0,1.3,0.1,1.9,0.3s1.2,0.5,1.7,0.9l4.4,3.5v-4.9h2.6V833.2z"/>
			<path class="st10" d="M362.3,822.8h-2.5l-9.6-4.4v-3l9.4,4.3v-6.4h2.6V822.8z M364.5,817.1h-8.4v-2.7h8.4V817.1z"/>
		</g>
	</g>
	<g>
		<g>
			<rect x="198" y="732.3" class="st11" width="106.3" height="102.7"/>
			<rect x="202.3" y="732.3" class="st12" width="3" height="102.7"/>
			<rect x="208.3" y="732.3" class="st12" width="2" height="102.7"/>
			<rect x="299.2" y="732.3" class="st12" width="2" height="102.7"/>
			<rect x="280.6" y="732.3" class="st12" width="2" height="102.7"/>
			
				<rect x="216.8" y="732.3" transform="matrix(-1 -1.224647e-16 1.224647e-16 -1 436.8753 1567.2731)" class="st12" width="3.3" height="102.7"/>
			<rect x="225.9" y="732.3" class="st12" width="2.2" height="102.7"/>
			<rect x="264.2" y="732.3" class="st12" width="7.5" height="102.7"/>
			<rect x="286.9" y="732.3" class="st12" width="9.3" height="102.7"/>
			<rect x="243.8" y="732.3" class="st12" width="3.4" height="102.7"/>
			<rect x="252.5" y="732.3" class="st12" width="2.7" height="102.7"/>
			<rect x="258.2" y="732.3" class="st12" width="2.7" height="102.7"/>
		</g>
		<rect x="208.3" y="827.5" class="st3" width="44.2" height="15.5"/>
		<rect x="260.5" y="827.5" class="st3" width="35.8" height="15.5"/>
		<g>
			<g>
				<path d="M191.9,839.8c-0.8,0-1.4-0.2-1.8-0.7s-0.6-1-0.6-1.8v-3.9c0-0.8,0.2-1.3,0.6-1.8s1-0.6,1.8-0.6c0.8,0,1.4,0.2,1.8,0.6
					s0.6,1,0.6,1.8v3.9c0,0.8-0.2,1.3-0.6,1.8S192.7,839.8,191.9,839.8z M191.9,838.6c0.4,0,0.8-0.1,0.9-0.3s0.3-0.5,0.3-0.9v-3.9
					c0-0.4-0.1-0.7-0.3-0.9s-0.5-0.3-0.9-0.3s-0.8,0.1-0.9,0.3s-0.3,0.5-0.3,0.9v3.9c0,0.4,0.1,0.7,0.3,0.9S191.5,838.6,191.9,838.6
					z"/>
				<path d="M216.5,838.4v-1l2.9-6.2h1.2l-2.8,6.1h4.2v1.1H216.5z M220.1,839.7v-5h1.2v5H220.1z"/>
				<path d="M225.8,839.8c-0.8,0-1.4-0.2-1.8-0.7s-0.6-1-0.6-1.8v-3.9c0-0.8,0.2-1.3,0.6-1.8s1-0.6,1.8-0.6c0.8,0,1.4,0.2,1.8,0.6
					s0.6,1,0.6,1.8v3.9c0,0.8-0.2,1.3-0.6,1.8S226.6,839.8,225.8,839.8z M225.8,838.6c0.4,0,0.8-0.1,0.9-0.3s0.3-0.5,0.3-0.9v-3.9
					c0-0.4-0.1-0.7-0.3-0.9s-0.5-0.3-0.9-0.3s-0.8,0.1-0.9,0.3s-0.3,0.5-0.3,0.9v3.9c0,0.4,0.1,0.7,0.3,0.9S225.4,838.6,225.8,838.6
					z"/>
				<path d="M232.5,839.8c-0.8,0-1.4-0.2-1.8-0.7s-0.6-1-0.6-1.8v-3.9c0-0.8,0.2-1.3,0.6-1.8s1-0.6,1.8-0.6c0.8,0,1.4,0.2,1.8,0.6
					s0.6,1,0.6,1.8v3.9c0,0.8-0.2,1.3-0.6,1.8S233.3,839.8,232.5,839.8z M232.5,838.6c0.4,0,0.8-0.1,0.9-0.3s0.3-0.5,0.3-0.9v-3.9
					c0-0.4-0.1-0.7-0.3-0.9s-0.5-0.3-0.9-0.3s-0.8,0.1-0.9,0.3s-0.3,0.5-0.3,0.9v3.9c0,0.4,0.1,0.7,0.3,0.9S232,838.6,232.5,838.6z"
					/>
				<path d="M238.9,831c0.8,0,1.3,0.2,1.8,0.7s0.6,1.1,0.6,2v0c0,0.3-0.1,0.7-0.2,1.1s-0.3,0.8-0.4,1.2l-1.8,3.7h-1.3l2.1-4.2l0,0.2
					c-0.1,0.2-0.3,0.3-0.5,0.4s-0.4,0.1-0.7,0.1c-0.6,0-1.1-0.2-1.5-0.7s-0.6-1.1-0.6-1.8v0c0-0.8,0.2-1.5,0.6-1.9
					S238.1,831,238.9,831z M238.9,832.2c-0.4,0-0.7,0.1-0.9,0.4s-0.3,0.6-0.3,1.1v0c0,0.5,0.1,0.8,0.3,1.1s0.5,0.4,0.9,0.4
					c0.4,0,0.7-0.1,0.9-0.4s0.3-0.6,0.3-1.1v0c0-0.5-0.1-0.8-0.3-1.1S239.2,832.2,238.9,832.2z"/>
				<path d="M245.2,839.8c-0.8,0-1.4-0.2-1.8-0.7s-0.6-1-0.6-1.8v-3.9c0-0.8,0.2-1.3,0.6-1.8s1-0.6,1.8-0.6c0.8,0,1.4,0.2,1.8,0.6
					s0.6,1,0.6,1.8v3.9c0,0.8-0.2,1.3-0.6,1.8S246.1,839.8,245.2,839.8z M245.2,838.6c0.4,0,0.8-0.1,0.9-0.3s0.3-0.5,0.3-0.9v-3.9
					c0-0.4-0.1-0.7-0.3-0.9s-0.5-0.3-0.9-0.3s-0.8,0.1-0.9,0.3s-0.3,0.5-0.3,0.9v3.9c0,0.4,0.1,0.7,0.3,0.9S244.8,838.6,245.2,838.6
					z"/>
				<path d="M263.7,839.7v-1l3-4c0.2-0.2,0.3-0.5,0.4-0.7s0.1-0.5,0.1-0.7v0c0-0.3-0.1-0.6-0.3-0.8s-0.5-0.3-0.8-0.3
					c-0.3,0-0.6,0.1-0.8,0.3s-0.3,0.5-0.4,0.9v0h-1.2v0c0.1-0.7,0.4-1.3,0.8-1.7s1-0.6,1.7-0.6c0.8,0,1.4,0.2,1.8,0.6
					s0.6,0.9,0.6,1.7v0c0,0.3-0.1,0.6-0.2,0.9s-0.3,0.6-0.5,0.9l-2.5,3.4h3.2v1.1H263.7z"/>
				<path d="M272.5,839.8c-0.5,0-1-0.1-1.4-0.3s-0.7-0.5-0.9-0.8s-0.3-0.8-0.3-1.2v-0.2c0-0.4,0.1-0.8,0.3-1.2s0.5-0.7,0.9-0.8
					c-0.3-0.2-0.5-0.4-0.7-0.7s-0.3-0.6-0.3-1v-0.2c0-0.7,0.2-1.2,0.7-1.6s1-0.6,1.7-0.6s1.3,0.2,1.7,0.6s0.7,1,0.7,1.6v0.2
					c0,0.4-0.1,0.7-0.3,1s-0.4,0.5-0.7,0.7c0.4,0.2,0.6,0.5,0.9,0.8s0.3,0.8,0.3,1.2v0.2c0,0.5-0.1,0.9-0.3,1.2s-0.5,0.6-0.9,0.8
					S273,839.8,272.5,839.8z M272.5,838.6c0.4,0,0.8-0.1,1-0.4s0.4-0.6,0.4-0.9v-0.1c0-0.4-0.1-0.7-0.4-1s-0.6-0.4-1-0.4
					s-0.8,0.1-1,0.4s-0.4,0.6-0.4,1v0.1c0,0.4,0.1,0.7,0.4,0.9S272.1,838.6,272.5,838.6z M272.5,834.8c0.4,0,0.7-0.1,0.9-0.3
					s0.3-0.5,0.3-0.9v-0.1c0-0.4-0.1-0.7-0.3-0.9s-0.5-0.3-0.9-0.3s-0.7,0.1-0.9,0.3s-0.3,0.5-0.3,0.9v0.1c0,0.4,0.1,0.7,0.3,0.9
					S272.1,834.8,272.5,834.8z"/>
				<path d="M279.2,839.8c-0.8,0-1.4-0.2-1.8-0.7s-0.6-1-0.6-1.8v-3.9c0-0.8,0.2-1.3,0.6-1.8s1-0.6,1.8-0.6c0.8,0,1.4,0.2,1.8,0.6
					s0.6,1,0.6,1.8v3.9c0,0.8-0.2,1.3-0.6,1.8S280,839.8,279.2,839.8z M279.2,838.6c0.4,0,0.8-0.1,0.9-0.3s0.3-0.5,0.3-0.9v-3.9
					c0-0.4-0.1-0.7-0.3-0.9s-0.5-0.3-0.9-0.3s-0.8,0.1-0.9,0.3s-0.3,0.5-0.3,0.9v3.9c0,0.4,0.1,0.7,0.3,0.9S278.7,838.6,279.2,838.6
					z"/>
				<path d="M285.8,839.8c-0.8,0-1.4-0.2-1.8-0.7s-0.6-1-0.6-1.8v-3.9c0-0.8,0.2-1.3,0.6-1.8s1-0.6,1.8-0.6c0.8,0,1.4,0.2,1.8,0.6
					s0.6,1,0.6,1.8v3.9c0,0.8-0.2,1.3-0.6,1.8S286.6,839.8,285.8,839.8z M285.8,838.6c0.4,0,0.8-0.1,0.9-0.3s0.3-0.5,0.3-0.9v-3.9
					c0-0.4-0.1-0.7-0.3-0.9s-0.5-0.3-0.9-0.3s-0.8,0.1-0.9,0.3s-0.3,0.5-0.3,0.9v3.9c0,0.4,0.1,0.7,0.3,0.9S285.4,838.6,285.8,838.6
					z"/>
				<path d="M306.3,839.7v-1l3-4c0.2-0.2,0.3-0.5,0.4-0.7s0.1-0.5,0.1-0.7v0c0-0.3-0.1-0.6-0.3-0.8s-0.5-0.3-0.8-0.3
					c-0.3,0-0.6,0.1-0.8,0.3s-0.3,0.5-0.4,0.9v0h-1.2v0c0.1-0.7,0.4-1.3,0.8-1.7s1-0.6,1.7-0.6c0.8,0,1.4,0.2,1.8,0.6
					s0.6,0.9,0.6,1.7v0c0,0.3-0.1,0.6-0.2,0.9s-0.3,0.6-0.5,0.9l-2.5,3.4h3.2v1.1H306.3z"/>
			</g>
		</g>
	</g>
</g>
<g id="Layer_7">
	<rect class="st13" width="1024" height="1024"/>
</g>
<g id="roughness" class="st1">
	<g class="st14">
		<rect x="-11" y="-11" class="st15" width="1047" height="1047"/>
		<path class="st16" d="M478,1012.2H-31.7c-6.6,0-12-5.4-12-12V744.3c0-6.6,5.4-12,12-12H478c6.6,0,12,5.4,12,12v255.9
			C490,1006.8,484.6,1012.2,478,1012.2z"/>
		<path class="st16" d="M277.1,710.9H26.2c-6.6,0-12-5.4-12-12V443c0-6.6,5.4-12,12-12h250.9V710.9z"/>
		<rect x="556.8" y="450.4" class="st16" width="160.8" height="267.4"/>
	</g>
</g>
</svg>
